<?xml version="1.0" standalone="no"?>
<!DOCTYPE svg PUBLIC "-//W3C//DTD SVG 20010904//EN"
 "http://www.w3.org/TR/2001/REC-SVG-20010904/DTD/svg10.dtd">
<svg version="1.0" xmlns="http://www.w3.org/2000/svg"
 width="1080.000000pt" height="1080.000000pt" viewBox="0 0 1080.000000 1080.000000"
 preserveAspectRatio="xMidYMid meet">
<metadata>
Created by potrace 1.11, written by Peter Selinger 2001-2013
</metadata>
<g transform="translate(0.000000,1080.000000) scale(0.100000,-0.100000)"
fill="#000000" stroke="none">
<path d="M5375 7830 c-22 -3 -79 -5 -127 -5 -49 0 -88 -2 -88 -5 0 -9 -64 -7
-71 2 -3 5 -22 2 -42 -7 -21 -8 -38 -11 -42 -6 -3 6 -20 4 -40 -5 -22 -9 -36
-10 -40 -4 -4 6 -11 7 -17 4 -10 -7 -20 -9 -93 -19 -16 -2 -43 -7 -60 -11 -16
-4 -40 -7 -52 -7 -13 -1 -23 -4 -23 -8 0 -4 -8 -6 -17 -4 -10 1 -22 0 -28 -4
-5 -3 -13 -6 -17 -7 -5 -1 -9 -2 -10 -4 -2 -1 -12 -3 -23 -5 -11 -2 -30 -6
-42 -9 -13 -3 -33 -9 -45 -12 -13 -3 -30 -7 -40 -8 -9 -1 -24 -9 -34 -17 -16
-12 -17 -12 -9 1 8 13 7 13 -8 1 -9 -7 -17 -11 -17 -8 0 3 -27 -5 -60 -18 -33
-13 -60 -22 -60 -20 0 2 -12 -2 -27 -10 -15 -8 -30 -12 -35 -9 -4 3 -8 0 -8
-6 0 -6 -4 -9 -9 -5 -5 3 -15 -1 -23 -8 -7 -8 -19 -12 -26 -9 -6 2 -12 -1 -12
-8 0 -6 -4 -9 -8 -6 -5 3 -23 -4 -41 -15 -18 -11 -30 -16 -27 -11 6 11 -79
-32 -102 -50 -13 -11 -14 -11 -7 2 6 11 4 11 -11 -2 -10 -9 -23 -17 -29 -18
-5 -1 -35 -13 -65 -28 -30 -14 -57 -26 -60 -26 -3 -1 -11 -5 -17 -9 -7 -5 -13
-5 -13 -1 0 4 -7 -1 -16 -12 -8 -10 -12 -12 -8 -4 6 11 2 10 -13 -3 -11 -9
-23 -14 -26 -10 -4 3 -15 0 -24 -8 -30 -24 -83 -51 -83 -42 0 4 -5 0 -11 -10
-6 -9 -14 -15 -18 -13 -4 3 -17 -3 -27 -13 -11 -9 -26 -15 -33 -13 -8 3 -11 0
-7 -6 3 -6 -4 -14 -16 -17 -13 -4 -33 -17 -45 -28 -13 -11 -23 -17 -23 -13 0
8 -23 -10 -52 -41 -12 -13 -28 -23 -35 -23 -7 0 -13 -5 -13 -10 0 -6 -11 -15
-25 -20 -14 -5 -25 -15 -25 -21 0 -7 -3 -10 -6 -6 -6 5 -34 -16 -86 -65 -15
-15 -28 -25 -28 -22 0 3 -29 -23 -63 -58 -35 -35 -62 -66 -60 -70 2 -5 -3 -8
-11 -8 -9 0 -16 -6 -16 -14 0 -8 -9 -12 -25 -11 -14 2 -25 -1 -25 -5 0 -5 -13
-7 -30 -5 -16 2 -30 0 -30 -4 0 -7 -15 -11 -53 -12 -9 0 -15 -5 -11 -10 3 -6
0 -10 -7 -9 -21 3 -59 -11 -59 -22 0 -5 -5 -6 -10 -3 -5 3 -10 1 -10 -5 0 -6
-5 -8 -11 -5 -5 4 -18 -3 -29 -15 -10 -12 -22 -21 -27 -20 -4 1 -19 -9 -32
-22 -14 -13 -21 -16 -16 -8 4 8 -2 5 -14 -7 -12 -13 -26 -23 -31 -23 -4 0 -21
-18 -38 -40 -16 -22 -31 -38 -33 -36 -2 2 -15 -8 -29 -22 -17 -17 -19 -21 -5
-12 11 7 0 -6 -25 -30 -25 -23 -39 -39 -31 -35 9 6 12 4 7 -3 -4 -7 -14 -12
-23 -12 -9 0 -14 -3 -11 -6 3 -3 -4 -15 -16 -28 -11 -12 -28 -33 -36 -46 -8
-13 -26 -35 -40 -50 -37 -39 -83 -101 -100 -135 -13 -26 -66 -101 -133 -189
-12 -16 -23 -33 -25 -37 -2 -5 -10 -9 -17 -9 -8 0 -17 -5 -21 -12 -5 -7 -2 -9
7 -4 8 4 5 -1 -6 -11 -11 -10 -27 -27 -35 -38 -13 -17 -13 -18 0 -10 8 4 5 -2
-8 -14 -12 -12 -20 -26 -17 -31 3 -4 -2 -10 -9 -13 -8 -3 -20 -16 -26 -28 -10
-17 -9 -20 2 -14 7 5 3 -3 -9 -17 -13 -13 -23 -32 -23 -41 0 -9 -5 -17 -11
-17 -6 0 -9 -6 -7 -12 3 -7 -1 -19 -9 -26 -7 -8 -11 -18 -8 -23 4 -5 2 -9 -2
-9 -5 0 -9 -10 -10 -22 -1 -11 -8 -25 -15 -29 -7 -5 -9 -9 -4 -9 5 0 3 -7 -4
-15 -7 -8 -9 -15 -5 -15 4 0 3 -6 -2 -12 -5 -7 -11 -33 -12 -58 -1 -25 -6 -58
-11 -75 -5 -16 -18 -60 -29 -96 -11 -37 -22 -95 -25 -130 -2 -35 -5 -64 -6
-64 -5 0 -20 -151 -20 -195 0 -14 2 -45 5 -70 5 -43 14 -190 17 -277 1 -24 5
-43 8 -43 4 0 6 -10 5 -22 -1 -13 3 -29 9 -37 9 -12 8 -13 -3 -6 -11 6 -12 5
-5 -6 4 -8 10 -23 11 -34 2 -11 6 -27 10 -35 3 -8 8 -24 10 -35 2 -11 8 -24
13 -29 4 -4 6 -15 3 -22 -3 -8 0 -14 7 -14 7 0 10 -6 7 -14 -3 -8 0 -20 8 -26
8 -6 11 -18 8 -26 -3 -8 0 -14 5 -14 6 0 14 -16 18 -35 3 -19 10 -33 14 -30 4
3 11 -2 14 -11 4 -10 2 -13 -7 -8 -6 4 -1 -5 13 -21 14 -16 18 -24 10 -20 -11
6 -10 3 3 -12 9 -11 14 -23 10 -26 -3 -4 0 -7 7 -7 7 0 10 -3 7 -7 -4 -3 1
-12 11 -20 10 -9 11 -11 2 -7 -8 5 -2 -9 13 -29 15 -20 24 -37 20 -37 -4 0 -3
-4 2 -8 21 -15 50 -56 35 -48 -8 4 -3 -2 12 -14 16 -12 28 -27 28 -34 0 -13
41 -52 52 -48 5 1 8 -4 8 -11 0 -13 40 -43 53 -39 5 1 6 -1 3 -6 -3 -5 9 -19
26 -32 17 -12 27 -16 23 -9 -5 8 4 2 20 -13 25 -25 32 -29 50 -28 3 1 13 -6
21 -15 9 -8 20 -13 25 -10 5 4 9 1 9 -5 0 -6 5 -8 10 -5 6 3 10 -2 11 -12 0
-11 3 -13 6 -5 4 9 8 10 18 2 7 -6 27 -12 44 -13 17 -1 31 -5 31 -9 0 -8 34
-3 50 7 6 4 10 3 9 -2 -5 -28 2 -36 14 -18 10 13 16 15 21 6 4 -6 12 -9 17 -5
12 7 146 6 219 -2 30 -3 67 -7 81 -7 15 -1 25 -7 22 -13 -2 -6 9 -9 27 -8 16
1 33 -2 36 -7 3 -5 10 -7 15 -4 5 4 9 1 9 -6 0 -9 3 -9 14 0 10 8 15 9 18 1 2
-6 20 -12 40 -13 20 -1 34 -5 31 -9 -2 -5 5 -8 16 -8 12 0 21 4 21 8 0 5 17 7
37 5 37 -2 115 8 162 23 19 5 22 4 16 -6 -5 -9 -4 -11 4 -6 6 4 9 11 6 16 -5
9 47 30 74 30 9 0 33 9 54 20 21 11 42 18 47 15 5 -3 17 4 27 16 10 12 23 27
30 34 7 7 10 14 8 17 -2 2 5 4 15 5 17 2 19 -3 14 -25 -4 -15 -11 -32 -15 -38
-5 -6 -3 -16 4 -24 10 -10 9 -12 -3 -8 -12 4 -15 -4 -15 -42 0 -27 -4 -46 -9
-43 -5 3 -7 -11 -4 -31 2 -20 1 -36 -3 -36 -4 0 -6 -20 -5 -46 1 -25 -1 -47
-6 -50 -5 -3 -6 -10 -3 -15 4 -5 2 -9 -4 -9 -6 0 -8 -6 -5 -14 3 -8 7 -32 9
-53 1 -21 4 -38 5 -38 2 0 9 -59 12 -102 2 -18 5 -33 9 -33 3 0 11 -16 19 -35
7 -19 18 -31 23 -28 6 3 7 1 4 -4 -4 -6 9 -28 28 -49 19 -21 35 -43 35 -48 0
-6 5 -4 10 4 8 13 10 13 10 -2 0 -9 10 -20 23 -23 12 -4 37 -18 55 -32 17 -13
32 -20 32 -16 0 4 4 3 8 -4 4 -6 16 -13 27 -15 11 -1 29 -11 39 -20 11 -10 26
-19 33 -19 21 -2 27 -4 51 -17 12 -7 22 -10 22 -6 0 3 7 1 15 -6 8 -7 22 -10
30 -6 9 3 13 2 10 -4 -3 -6 3 -10 14 -10 12 0 21 -3 21 -7 0 -5 10 -9 23 -9
59 -4 98 -12 114 -25 12 -10 15 -10 9 -1 -6 10 2 12 33 10 23 -2 41 -5 41 -8
0 -3 16 -6 35 -7 19 -2 35 0 35 5 0 4 18 7 40 7 25 0 40 -4 40 -12 0 -8 9 -9
31 -3 18 5 35 7 40 5 4 -3 9 -1 11 5 4 14 133 50 194 53 27 2 56 7 63 12 8 4
16 2 21 -5 5 -9 8 -8 12 2 3 7 30 20 59 27 68 17 237 69 264 81 11 5 74 35
140 67 66 31 126 57 132 56 7 0 11 3 8 7 -5 9 90 60 111 60 6 0 17 7 24 15 7
9 19 14 27 11 8 -3 12 -2 9 3 -3 5 36 27 87 51 50 23 94 45 97 48 3 4 25 18
50 31 25 14 67 40 94 58 26 18 52 34 57 34 5 1 14 2 19 3 6 0 14 6 18 12 7 11
111 64 125 64 4 0 16 8 26 18 41 37 52 43 63 36 7 -4 8 -3 4 4 -4 7 -1 12 8
12 9 0 16 4 16 10 0 11 60 44 60 33 0 -5 4 -3 8 3 4 7 28 23 54 37 26 14 59
35 74 46 15 12 32 21 38 22 6 0 33 11 61 24 27 13 53 21 57 19 5 -3 8 -1 8 4
0 5 28 15 63 22 78 15 85 17 122 28 17 5 40 8 52 7 12 -1 20 2 17 7 -3 4 12 9
33 9 41 2 61 5 107 15 23 5 27 4 22 -7 -4 -8 -2 -7 6 2 7 9 20 17 28 18 48 6
169 13 262 14 60 1 108 5 108 9 0 4 8 7 18 7 9 0 33 3 52 6 19 3 55 8 80 10
71 7 95 11 105 17 6 3 30 6 55 6 54 1 192 39 202 55 4 7 8 7 8 2 0 -6 24 -10
55 -10 33 0 55 4 55 11 0 6 16 10 35 9 19 0 35 3 35 8 0 5 8 3 17 -4 11 -10
14 -10 9 -1 -5 9 17 13 96 14 171 4 221 6 268 12 25 2 82 6 127 8 44 2 79 6
76 11 -2 4 2 7 9 8 7 0 22 3 33 6 11 3 39 6 62 7 22 0 39 4 37 8 -3 4 9 6 25
4 17 -2 31 0 31 4 0 4 6 7 13 8 27 2 73 11 91 18 15 6 17 4 11 -7 -6 -10 -3
-9 11 2 10 9 27 15 37 14 9 -2 17 1 17 7 0 6 13 8 29 6 17 -2 28 -1 26 3 -3 4
6 9 20 11 15 3 25 1 25 -6 0 -6 4 -6 9 2 4 7 14 14 22 15 8 2 20 6 27 10 6 5
12 6 12 2 0 -3 13 1 30 10 16 8 40 16 54 17 13 1 23 5 21 9 -5 7 47 55 57 51
4 -1 5 5 2 13 -4 8 1 17 10 21 9 3 13 10 10 15 -3 5 0 9 6 9 6 0 8 4 5 10 -3
6 -2 10 4 10 6 0 8 7 5 15 -4 8 -2 15 3 15 5 0 10 12 11 26 1 14 5 31 9 37 4
7 8 17 9 22 1 6 5 26 9 45 8 45 16 124 16 175 0 89 -19 254 -31 270 -5 6 -8
26 -9 45 0 41 -2 48 -35 159 -14 47 -23 88 -20 93 3 4 1 8 -4 8 -6 0 -15 14
-21 30 -5 17 -7 30 -4 30 3 0 1 6 -5 13 -5 6 -33 73 -62 147 -28 74 -61 155
-72 180 -11 25 -21 50 -23 55 -1 6 -12 32 -23 58 -12 27 -22 53 -22 58 0 22
-53 78 -79 84 -30 6 -65 55 -45 62 9 3 8 20 -2 65 -16 68 -33 100 -111 204
-29 39 -53 76 -53 82 0 7 -4 12 -8 12 -11 0 -182 244 -182 259 0 6 -4 11 -8
11 -4 0 -16 14 -26 31 -41 69 -195 267 -235 301 -29 24 -56 38 -86 42 l-44 7
3 55 c3 38 -2 66 -15 93 -19 40 -96 115 -161 159 -21 13 -38 29 -38 33 0 5 -3
8 -7 7 -12 -4 -83 42 -83 53 0 5 -3 8 -7 7 -5 -1 -57 27 -116 62 -60 35 -116
65 -124 66 -9 2 -19 6 -22 11 -3 4 -10 8 -16 8 -33 2 -135 29 -135 36 0 5 -6
6 -13 3 -16 -6 -179 44 -188 58 -3 5 -9 9 -13 9 -3 -1 -19 5 -34 12 -36 19
-88 35 -136 42 -22 3 -65 13 -95 22 -31 9 -67 16 -81 15 -38 -3 -113 28 -140
59 -51 57 -320 98 -627 95 -77 0 -139 2 -137 5 2 3 -27 7 -64 8 -77 1 -157 6
-257 16 -89 9 -367 12 -420 5z m-1895 -4141 c0 -5 5 -7 11 -3 7 4 7 -1 -1 -16
-7 -12 -17 -19 -26 -16 -8 3 -14 2 -14 -2 0 -8 -63 -42 -78 -42 -9 0 91 89
101 90 4 0 7 -5 7 -11z m-243 -125 c-3 -3 -12 -4 -19 -1 -8 3 -5 6 6 6 11 1
17 -2 13 -5z m2486 -346 c-18 -20 -33 -24 -33 -8 0 6 6 9 13 8 6 -2 11 2 10 8
-1 6 5 11 13 11 11 0 11 -4 -3 -19z"/>
<path d="M7600 3760 c-9 -6 -10 -10 -3 -10 6 0 15 5 18 10 8 12 4 12 -15 0z"/>
<path d="M8780 3726 c0 -2 8 -10 18 -17 15 -13 16 -12 3 4 -13 16 -21 21 -21
13z"/>
<path d="M8547 3599 c7 -7 15 -10 18 -7 3 3 -2 9 -12 12 -14 6 -15 5 -6 -5z"/>
<path d="M8155 3580 c-3 -5 -1 -10 4 -10 6 0 11 5 11 10 0 6 -2 10 -4 10 -3 0
-8 -4 -11 -10z"/>
<path d="M2630 3486 c0 -2 7 -7 16 -10 8 -3 12 -2 9 4 -6 10 -25 14 -25 6z"/>
<path d="M8236 3473 c-6 -14 -5 -15 5 -6 7 7 10 15 7 18 -3 3 -9 -2 -12 -12z"/>
<path d="M3315 3401 c-3 -5 -2 -12 3 -15 5 -3 9 1 9 9 0 17 -3 19 -12 6z"/>
<path d="M3435 3000 c-3 -5 -1 -10 4 -10 6 0 11 5 11 10 0 6 -2 10 -4 10 -3 0
-8 -4 -11 -10z"/>
<path d="M5253 2795 c0 -8 4 -12 9 -9 5 3 6 10 3 15 -9 13 -12 11 -12 -6z"/>
<path d="M4590 2736 c0 -2 8 -10 18 -17 15 -13 16 -12 3 4 -13 16 -21 21 -21
13z"/>
<path d="M5151 2647 c-8 -10 -7 -14 2 -14 8 0 14 6 14 14 0 7 -1 13 -2 13 -2
0 -8 -6 -14 -13z"/>
<path d="M3595 2640 c-3 -5 -1 -10 4 -10 6 0 11 5 11 10 0 6 -2 10 -4 10 -3 0
-8 -4 -11 -10z"/>
<path d="M5075 2609 c-4 -6 -5 -12 -2 -15 2 -3 7 2 10 11 7 17 1 20 -8 4z"/>
<path d="M5115 2580 c-3 -5 -1 -10 4 -10 6 0 11 5 11 10 0 6 -2 10 -4 10 -3 0
-8 -4 -11 -10z"/>
<path d="M3973 2475 c0 -8 4 -12 9 -9 5 3 6 10 3 15 -9 13 -12 11 -12 -6z"/>
</g>
</svg>
