<?xml version="1.0" standalone="no"?>
<!DOCTYPE svg PUBLIC "-//W3C//DTD SVG 20010904//EN"
 "http://www.w3.org/TR/2001/REC-SVG-20010904/DTD/svg10.dtd">
<svg version="1.0" xmlns="http://www.w3.org/2000/svg"
 width="1080.000000pt" height="1080.000000pt" viewBox="0 0 1080.000000 1080.000000"
 preserveAspectRatio="xMidYMid meet">
<metadata>
Created by potrace 1.11, written by Peter Selinger 2001-2013
</metadata>
<g transform="translate(0.000000,1080.000000) scale(0.100000,-0.100000)"
fill="#000000" stroke="none">
<path d="M0 5400 l0 -5400 5400 0 5400 0 0 5400 0 5400 -5400 0 -5400 0 0
-5400z m6002 2360 c119 -11 326 -24 460 -30 369 -15 457 -36 458 -106 0 -17 5
-20 30 -16 37 5 38 -7 4 -47 -25 -30 -28 -31 -109 -31 l-83 0 2 35 c2 19 -1
35 -5 35 -5 0 -9 -16 -9 -35 l0 -35 -282 0 c-248 0 -284 2 -300 17 -17 15 -18
15 -18 0 0 -10 5 -17 11 -17 6 0 8 -9 4 -20 -4 -11 -2 -20 4 -20 6 0 11 6 11
13 0 9 64 12 285 12 l285 0 0 -30 c0 -23 3 -26 10 -15 5 8 7 23 4 33 -5 16 13
17 263 19 247 2 255 3 103 8 l-165 5 38 22 c21 13 56 26 78 29 35 6 39 4 39
-14 0 -18 4 -20 30 -12 20 6 52 3 102 -10 40 -10 66 -19 58 -20 -8 -1 3 -6 25
-10 22 -4 67 -19 100 -34 l60 -26 -39 0 c-78 0 -21 -19 89 -29 184 -16 277
-54 517 -212 168 -111 221 -158 254 -224 25 -52 26 -58 14 -101 -10 -36 -20
-49 -46 -62 -18 -8 -31 -19 -28 -24 8 -13 56 -9 84 7 41 24 82 18 123 -16 45
-37 146 -169 285 -374 56 -82 127 -185 158 -227 l55 -78 -31 0 c-28 0 -31 -2
-20 -15 7 -8 27 -15 46 -15 18 0 36 -4 39 -10 4 -7 -118 -10 -358 -10 l-365 0
0 50 0 50 104 0 c63 0 104 4 104 10 0 7 -193 10 -559 10 l-558 0 0 40 0 40
561 3 c308 1 50 2 -574 2 -624 0 -880 -1 -568 -2 l567 -3 -1 -40 0 -40 -569 0
-569 0 0 45 0 45 -122 -2 -123 -2 113 -3 112 -4 0 -40 0 -40 -110 3 c-105 3
-110 2 -109 -17 0 -11 3 -14 6 -7 3 8 35 12 109 12 98 0 104 -1 104 -20 0 -20
-6 -20 -221 -19 -185 1 -220 3 -215 15 3 9 -1 14 -13 14 -10 0 -21 -7 -24 -14
-4 -10 -25 -16 -59 -19 -29 -2 188 -4 483 -5 l535 -2 -2 -45 c-1 -25 2 -47 7
-50 5 -4 9 16 9 44 l0 50 38 4 c20 2 -88 4 -240 5 -268 2 -278 3 -278 21 0 19
17 20 1013 15 556 -3 1017 -7 1023 -9 5 -1 10 -22 9 -46 l-1 -44 -745 -5 -744
-5 745 -5 c737 -5 745 -5 745 -25 0 -20 -8 -20 -745 -25 l-745 -5 745 -5 745
-5 -2 -22 c-2 -14 3 -23 11 -23 9 0 12 8 8 25 l-4 25 391 0 392 0 16 -37 c10
-22 17 -64 17 -100 0 -35 3 -63 8 -63 18 0 7 -20 -19 -35 -27 -16 -27 -16 34
-11 76 5 68 16 162 -212 l70 -173 -97 3 c-96 3 -97 3 -97 28 0 23 -4 25 -54
28 -35 2 -51 0 -46 -7 3 -6 24 -11 46 -11 32 0 39 -3 39 -20 0 -18 -7 -20 -66
-20 l-66 0 6 30 c4 23 2 30 -9 30 -11 0 -14 -7 -10 -22 4 -17 -4 -34 -28 -61
l-33 -37 -325 2 c-316 3 -324 3 -324 23 0 20 7 20 337 22 186 1 338 5 338 8 0
3 -152 7 -337 8 l-338 2 0 53 c0 32 -4 52 -11 52 -7 0 -11 -19 -10 -52 l1 -53
-634 -2 c-373 -2 -638 -6 -645 -12 -23 -19 -113 -47 -160 -50 -55 -2 -66 -7
-65 -24 0 -9 2 -9 6 1 5 14 79 17 87 3 6 -9 90 10 122 27 79 43 57 42 685 42
348 0 600 -4 603 -9 4 -5 3 -16 0 -25 -6 -14 -71 -16 -638 -18 l-631 -3 635
-5 635 -5 -3 -70 c-1 -38 -2 -85 -2 -102 l-1 -33 -444 0 -445 0 -2 38 -1 37
-4 -37 -4 -38 -567 -2 -567 -3 568 -2 c557 -3 567 -4 567 -23 0 -19 -10 -20
-569 -20 l-569 0 -10 57 -9 58 -2 -58 -1 -57 -185 0 c-177 1 -185 2 -185 21 0
18 9 19 183 20 152 1 170 3 111 10 -91 11 -444 16 -444 7 0 -4 -10 -9 -22 -11
-13 -2 -6 -3 15 0 25 2 36 0 32 -7 -8 -13 -81 -13 -106 1 -13 6 -114 10 -279
9 -216 0 -260 2 -260 13 0 10 23 18 75 26 41 7 73 16 70 21 -3 4 -13 7 -23 5
-9 -2 -79 -12 -154 -21 -76 -10 -138 -22 -138 -27 0 -5 -7 -6 -16 -3 -8 3 -24
1 -34 -4 -29 -16 -271 -14 -281 1 -10 17 -59 -4 -59 -26 0 -17 45 -21 55 -5 3
6 28 10 56 10 42 0 49 -3 49 -20 0 -19 -7 -20 -130 -19 -117 0 -130 2 -128 17
2 12 16 19 48 23 27 3 -6 6 -80 7 -77 1 -126 5 -128 11 -5 14 -39 14 -47 1 -4
-6 -87 -11 -208 -12 l-202 -3 198 -2 c120 -2 197 -7 197 -13 0 -13 47 -13 55
0 3 6 30 10 60 10 48 0 53 -2 48 -20 -5 -18 -15 -19 -276 -20 -149 0 -273 -2
-275 -5 -3 -3 276 -5 620 -5 491 0 628 -3 632 -12 5 -10 7 -10 12 0 4 9 90 12
377 12 244 0 367 -4 357 -10 -13 -8 -13 -10 2 -10 9 0 20 5 23 10 4 6 80 10
196 10 l189 0 0 -40 c0 -38 -2 -40 -30 -40 -23 0 -30 4 -30 20 0 15 7 20 28
21 27 2 27 2 2 6 -14 3 -28 10 -32 17 -4 6 -7 -38 -6 -99 1 -77 3 -90 5 -42 4
67 4 67 33 67 25 0 30 -4 30 -25 0 -14 5 -25 10 -25 6 0 10 11 10 25 l0 25
570 0 570 0 1 -27 2 -28 4 28 c4 23 9 27 39 27 19 0 43 -6 54 -12 16 -10 24
-10 40 0 25 15 94 16 120 0 15 -9 24 -9 42 0 17 9 99 12 313 10 l289 -3 2 -31
c1 -22 -4 -33 -20 -40 -23 -10 -20 -30 5 -27 13 2 15 -9 15 -65 l-1 -67 -197
-3 -198 -2 10 24 c7 20 6 25 -8 28 -30 6 -85 -4 -72 -12 7 -4 10 -15 7 -24 -5
-14 -28 -16 -161 -16 l-156 0 10 24 c8 23 7 24 -35 28 -41 3 -43 2 -42 -22 l2
-25 -330 -5 -330 -5 235 -3 c129 -2 467 -4 750 -5 508 -2 515 -2 515 -22 0
-20 -7 -20 -515 -22 -283 -1 -546 -3 -585 -5 -38 -1 193 -5 515 -8 511 -4 585
-7 585 -20 0 -13 -71 -15 -569 -18 -373 -1 -573 1 -580 8 -13 13 -53 13 -61 0
-8 -13 -122 -13 -130 0 -8 13 -48 13 -62 -1 -6 -6 -32 -10 -57 -8 -25 3 -46 1
-46 -3 0 -5 17 -8 39 -8 22 0 44 -6 51 -15 16 -19 39 -19 64 0 27 20 122 20
130 0 7 -19 35 -19 62 -1 17 12 114 14 586 15 600 0 589 1 572 -44 -4 -9 0
-15 8 -15 8 0 14 10 13 28 0 26 3 27 52 30 l53 3 -6 -30 c-6 -28 -4 -31 20
-31 19 0 32 8 44 30 16 28 21 30 74 30 56 0 57 0 55 -27 -2 -22 3 -29 21 -31
16 -3 27 5 40 27 l17 31 449 0 449 0 -7 -92 c-4 -50 -12 -114 -17 -140 -10
-46 -12 -48 -28 -34 -10 9 -23 16 -29 16 -20 0 -13 -23 13 -45 l25 -20 -33
-65 -32 -65 -6 75 -5 75 -2 -81 c-2 -92 -6 -98 -86 -133 -40 -17 -151 -51
-168 -51 -2 0 -4 9 -5 20 -1 11 3 20 9 20 7 0 7 4 0 13 -6 7 -9 28 -7 46 4 29
2 32 -18 29 -19 -3 -22 -9 -21 -40 1 -21 -2 -38 -8 -38 -5 0 -6 -6 -2 -12 6
-10 14 -48 10 -48 -1 0 -46 -9 -101 -19 -134 -26 -260 -39 -505 -51 -231 -12
-272 -17 -490 -65 -143 -31 -271 -54 -395 -70 -27 -4 -120 -7 -205 -8 -105 0
-134 -2 -90 -7 l65 -6 -65 -5 c-36 -3 -73 -1 -82 3 -11 5 -18 5 -18 0 0 -6
-39 -13 -87 -17 -49 -4 -121 -13 -161 -21 -118 -22 -119 -22 -117 34 3 73 -9
75 -15 3 l-5 -64 -80 -22 c-77 -21 -180 -56 -257 -89 -32 -14 -101 -16 -508
-16 l-470 0 -1 23 -2 22 -4 -22 c-4 -23 -6 -23 -183 -23 -173 0 -178 1 -173
20 5 17 0 20 -27 20 -23 0 -33 -5 -37 -20 -5 -17 -14 -20 -58 -20 -48 0 -53 2
-48 20 4 16 0 20 -22 20 -18 0 -28 -6 -32 -20 -5 -19 -14 -20 -284 -20 -272 0
-279 0 -279 20 0 11 -4 20 -10 20 -5 0 -10 -9 -10 -20 0 -20 -7 -20 -370 -20
-203 0 -370 4 -370 8 0 5 25 79 55 165 54 155 54 157 32 157 -20 0 -28 -12
-56 -85 -28 -75 -89 -170 -122 -190 -6 -4 -15 -2 -19 6 -6 9 -19 4 -49 -24
l-41 -37 -100 0 c-93 0 -100 1 -100 20 0 11 -4 20 -9 20 -5 0 -8 -8 -7 -17 1
-17 -22 -18 -327 -21 -258 -2 -341 1 -390 12 -85 20 -235 84 -247 106 -5 10
-20 20 -33 24 -47 11 -217 212 -277 326 -31 57 -139 353 -154 419 -10 45 -19
144 -23 255 l-6 181 21 -25 c27 -31 28 -15 7 66 -15 57 -12 150 5 207 6 16 5
27 -1 27 -14 0 -11 38 4 43 7 3 5 6 -5 6 -25 1 -23 31 1 31 11 0 23 5 26 10 4
6 -5 10 -19 10 -16 0 -26 6 -26 15 0 11 11 15 38 15 23 0 32 3 24 8 -16 11 -6
39 16 45 10 3 3 5 -15 6 -29 1 -31 3 -23 29 5 15 13 45 18 67 23 94 200 455
224 455 5 0 6 5 2 11 -4 7 2 19 13 28 26 21 171 201 285 354 50 67 114 148
141 180 l50 57 538 0 539 0 0 -40 0 -40 -547 0 c-300 0 -544 -3 -541 -6 3 -3
249 -5 547 -4 536 0 541 0 541 -20 0 -20 -6 -20 -557 -22 l-558 -3 558 -2
c549 -3 557 -3 557 -23 0 -11 5 -20 10 -20 6 0 10 9 10 20 0 20 7 20 570 20
l570 0 1 -27 2 -28 4 27 4 28 556 0 c306 0 558 2 561 5 3 3 -36 5 -86 5 -91 0
-104 4 -80 28 9 9 6 12 -15 12 -24 0 -32 -9 -28 -32 0 -5 -29 -8 -66 -8 -65 0
-66 0 -48 20 18 20 17 20 -8 20 -24 0 -32 -9 -28 -32 0 -5 -40 -8 -89 -8 -53
0 -90 4 -90 10 0 6 -9 10 -19 10 -11 0 -23 -4 -26 -10 -4 -6 -105 -10 -272
-10 -260 0 -265 0 -260 20 3 12 0 20 -8 20 -8 0 -11 -8 -8 -20 5 -20 0 -20
-566 -20 -564 0 -571 0 -571 20 0 19 7 20 288 22 l287 3 -287 2 -288 3 0 40 0
40 288 3 c158 1 -86 3 -543 5 l-830 2 50 44 c103 91 293 186 371 186 26 0 49
16 125 86 192 175 318 268 517 379 108 60 353 176 481 227 l76 30 275 1 275 1
-260 6 -260 5 50 18 c343 123 657 191 1030 220 146 12 520 5 717 -13z m3024
-1726 l14 -21 -379 -1 c-249 -1 -382 2 -386 9 -4 5 -4 16 -1 24 4 12 63 14
372 12 360 -2 367 -2 380 -23z m324 -694 c5 -10 10 -22 10 -26 0 -4 -51 -5
-112 -2 -62 2 -151 2 -198 -2 l-85 -7 85 -2 c47 -1 137 -2 201 -1 l116 1 46
-128 c57 -156 99 -311 86 -318 -13 -8 -11 -21 4 -37 8 -7 17 -37 21 -66 l7
-52 -171 0 c-119 0 -170 3 -170 11 0 8 -5 7 -15 -1 -10 -9 -43 -12 -98 -11
-45 1 -79 0 -77 -3 3 -3 38 -6 78 -7 39 -1 72 -6 72 -11 0 -4 -4 -8 -10 -8 -5
0 -10 -7 -10 -15 0 -13 -55 -14 -427 -12 -421 2 -428 2 -428 22 0 19 7 20 240
22 433 4 465 8 110 13 l-350 5 -2 118 -2 117 107 2 107 2 -108 3 c-96 3 -108
6 -105 21 3 14 19 18 103 23 l100 5 -102 2 c-84 2 -103 5 -103 17 0 12 20 15
108 17 l107 2 -107 3 c-100 3 -108 5 -108 23 0 11 6 20 13 20 7 0 18 14 24 30
6 17 7 28 2 24 -5 -3 -9 -1 -9 5 0 17 20 23 35 11 11 -9 15 -9 15 -1 0 6 -4
11 -10 11 -5 0 -7 7 -4 15 4 10 0 15 -10 15 -9 0 -19 -7 -22 -15 -4 -8 -12
-15 -18 -15 -8 0 -12 23 -13 70 l0 70 333 0 c260 0 334 -3 335 -12 0 -7 6 -1
12 13 26 57 24 57 212 57 161 1 176 -1 185 -18z m-4314 -262 l-2 -33 -162 -2
c-155 -2 -162 -2 -162 17 0 17 7 20 50 20 28 0 50 -4 50 -10 0 -18 46 -11 65
9 16 19 45 26 126 29 35 2 37 1 35 -30z m772 -17 c-3 -14 -41 -16 -381 -18
-369 -2 -377 -2 -377 17 0 18 7 20 70 20 40 0 70 -4 70 -10 0 -6 35 -10 85
-10 50 0 85 4 85 10 0 16 179 12 228 -5 46 -16 95 -13 138 10 32 16 86 7 82
-14z m2440 2 c-3 -17 -33 -18 -446 -21 -437 -2 -442 -2 -442 18 0 20 6 20 446
20 419 0 445 -1 442 -17z m-1954 -48 c-4 -9 -20 -15 -43 -16 l-36 -1 40 -9
c55 -11 95 -2 95 22 0 16 7 19 55 19 53 0 55 -1 45 -21 -7 -11 -10 -23 -7 -25
11 -11 57 9 62 27 6 17 17 19 140 19 128 0 133 -1 128 -20 -3 -11 0 -20 6 -20
6 0 11 9 11 20 0 20 7 20 280 20 242 0 280 -2 280 -15 0 -13 -27 -15 -185 -15
-124 0 -185 4 -185 11 0 21 -18 -2 -23 -31 l-6 -30 -76 0 c-72 0 -75 1 -65 19
14 27 14 59 -1 44 -9 -9 -15 -29 -18 -55 -1 -5 -131 -8 -291 -8 l-290 0 0 40
0 40 45 0 c35 0 43 -3 39 -15z m1791 6 c-3 -5 2 -16 10 -24 8 -9 15 -23 15
-31 0 -13 -13 -16 -75 -16 -68 0 -91 9 -66 25 11 6 10 45 -1 45 -4 0 -9 -7 -9
-15 -1 -8 -3 -19 -4 -25 -1 -5 -3 -14 -4 -20 -2 -15 -266 -13 -291 2 -16 10
-24 10 -40 0 -11 -6 -38 -12 -60 -12 -22 0 -49 6 -60 12 -16 10 -24 10 -40 0
-11 -6 -38 -12 -61 -12 -33 0 -40 3 -37 18 3 16 25 17 277 19 150 1 276 5 279
8 3 3 -121 5 -276 5 -244 0 -282 2 -282 15 0 13 47 15 366 15 219 0 363 -4
359 -9z m165 -6 c0 -12 -13 -15 -61 -15 -43 0 -58 3 -53 12 5 8 2 9 -9 5 -9
-3 -19 -2 -22 3 -4 6 24 10 69 10 61 0 76 -3 76 -15z m-902 -47 c3 -17 -11
-18 -193 -18 -193 0 -196 0 -185 20 10 20 19 20 193 18 164 -3 182 -5 185 -20z
m900 0 c3 -16 -5 -18 -62 -18 -36 0 -66 2 -66 4 0 29 16 37 69 34 44 -2 57 -7
59 -20z m1282 -303 l0 -24 -181 0 c-100 0 -184 -2 -187 -5 -3 -4 81 -6 186 -6
185 0 192 -1 192 -20 0 -21 31 -21 -1060 -21 -221 0 -210 -1 -210 21 0 20 6
20 437 20 352 -1 438 1 442 12 13 44 26 47 207 47 l174 1 0 -25z m-4374 -1060
c-23 -17 -36 -19 -36 -6 0 11 18 19 40 20 11 0 10 -3 -4 -14z m-1941 -45 c0
-25 -173 -25 -255 -1 l-65 20 160 -2 c135 -2 160 -4 160 -17z m162 1 c-21 -10
-62 -19 -92 -20 -49 -1 -55 1 -55 19 0 19 6 20 93 19 l92 -1 -38 -17z m451 0
c-3 -13 -20 -17 -110 -19 -104 -3 -106 -3 -101 18 5 19 12 21 110 19 91 -1
104 -3 101 -18z m542 -1 c0 -20 -6 -20 -265 -20 -254 1 -265 2 -265 20 0 18
11 19 265 20 259 0 265 0 265 -20z m1160 0 c0 -20 -6 -20 -265 -20 -242 1
-265 2 -266 18 -1 16 -2 16 -6 0 -4 -16 -29 -17 -304 -17 -290 0 -299 1 -299
19 0 20 11 20 570 20 564 0 570 0 570 -20z m911 -1 c-23 -19 -38 -20 -364 -18
-205 0 -342 -3 -346 -9 -10 -16 -84 -35 -131 -35 -31 0 -35 -1 -15 -4 16 -3
33 -9 36 -15 7 -12 56 1 126 33 39 17 69 19 340 19 238 0 295 -3 285 -12 -10
-10 -93 -14 -315 -18 -166 -3 -279 -7 -252 -9 28 -2 151 -3 275 -1 l225 2 -27
-21 c-25 -20 -37 -21 -375 -23 l-348 -3 334 -5 334 -5 -34 -26 c-19 -14 -55
-35 -81 -47 -26 -11 -110 -57 -187 -101 -77 -45 -143 -81 -146 -81 -4 0 -4 8
0 19 5 16 2 18 -27 12 -29 -6 -33 -11 -31 -37 2 -27 -4 -32 -88 -76 l-90 -47
2 240 2 239 85 0 c47 0 83 3 80 6 -3 3 -42 5 -87 5 -73 0 -81 2 -81 19 0 19
13 19 463 19 l462 0 -24 -20z m-3254 -36 c-20 -2 -52 -2 -70 0 -17 2 0 4 38 4
39 0 53 -2 32 -4z m86 0 c-7 -2 -21 -2 -30 0 -10 3 -4 5 12 5 17 0 24 -2 18
-5z m523 -9 c-17 -17 -20 -27 -9 -37 3 -4 14 7 24 23 l19 30 270 0 270 0 0
-275 0 -275 -185 0 c-176 1 -185 2 -185 20 0 18 10 20 183 23 l182 2 -215 1
c-118 1 -202 -1 -187 -3 20 -3 27 -9 25 -21 -3 -15 -23 -17 -162 -20 -145 -3
-160 -2 -170 15 -5 10 -8 18 -5 19 2 0 -3 9 -11 19 -13 17 -13 18 1 13 23 -9
64 21 50 35 -16 16 -14 27 5 27 14 0 14 3 4 15 -15 18 -34 19 -61 4 -16 -8
-18 -13 -9 -24 8 -9 8 -20 2 -31 -8 -14 -11 -11 -20 16 -22 62 -35 193 -28
273 l8 77 381 2 382 3 -382 2 c-298 3 -381 6 -378 16 2 6 6 24 9 40 l6 27 101
0 c91 0 99 -1 85 -16z m1733 -228 l2 -243 -23 -7 c-13 -3 -268 -7 -568 -8
l-545 -3 535 -5 c510 -5 534 -6 504 -22 -28 -15 -81 -17 -536 -18 l-506 0 -6
42 c-8 52 -7 312 1 425 l5 83 568 0 567 0 2 -244z m-1573 -331 c-12 -13 -39
-15 -142 -13 -91 2 -129 7 -132 16 -3 9 30 12 143 12 131 0 145 -2 131 -15z
m414 -25 l0 -40 -307 0 c-240 1 -312 4 -325 14 -10 7 -18 16 -18 20 0 11 218
7 226 -5 3 -6 14 2 25 20 l19 31 190 0 190 0 0 -40z m104 25 c-4 -9 -20 -15
-43 -16 l-36 -1 40 -9 c55 -11 95 -2 95 22 0 16 7 19 55 19 53 0 55 -1 45 -21
-7 -11 -10 -23 -7 -25 11 -11 57 9 62 27 6 17 17 19 140 19 128 0 133 -1 128
-20 -3 -11 0 -20 6 -20 6 0 11 -9 11 -20 0 -20 -7 -20 -290 -20 l-290 0 0 40
0 40 45 0 c35 0 43 -3 39 -15z m886 0 c-30 -17 -200 -21 -200 -4 0 21 -18 -2
-23 -31 l-6 -30 -76 0 c-73 0 -75 1 -65 20 8 16 22 20 63 22 l52 2 -52 3 c-29
2 -53 9 -53 15 0 7 -5 6 -15 -2 -12 -10 -15 -10 -15 4 0 14 23 16 208 16 184
-1 204 -2 182 -15z m-90 -45 c-20 -11 -55 -19 -83 -20 -45 0 -47 1 -37 20 9
17 21 20 83 20 l72 -1 -35 -19z m-900 -55 c0 -14 5 -25 10 -25 6 0 10 11 10
25 l0 25 402 0 c221 0 399 -2 397 -4 -3 -3 -56 -23 -119 -45 -108 -37 -152
-50 -225 -65 l-30 -6 35 30 c33 27 33 29 12 30 -13 0 -52 -18 -88 -39 -89 -54
-207 -81 -351 -81 -194 0 -350 38 -548 135 l-90 43 293 1 292 1 0 -25z"/>
<path d="M6313 7643 c-7 -2 -13 -11 -13 -19 0 -8 6 -14 13 -14 21 0 40 17 33
29 -8 12 -13 12 -33 4z"/>
<path d="M6463 7643 c-17 -6 -16 -33 1 -33 17 0 38 24 29 33 -7 8 -12 8 -30 0z"/>
<path d="M6600 7638 c-15 -6 -20 -12 -12 -15 28 -11 8 -23 -40 -25 l-53 -1 55
-6 c49 -5 58 -3 78 17 12 13 20 28 17 33 -7 11 -13 11 -45 -3z"/>
<path d="M6831 7636 c-7 -9 -8 -17 -2 -20 13 -9 43 4 38 17 -5 17 -23 19 -36
3z"/>
<path d="M4795 7619 c-18 -8 -17 -9 4 -5 14 3 39 -2 57 -10 19 -9 49 -14 75
-11 l44 4 -50 1 c-28 1 -55 6 -60 11 -17 15 -49 20 -70 10z"/>
<path d="M4422 7588 c-20 -20 -14 -36 13 -30 16 3 25 11 25 23 0 21 -20 25
-38 7z"/>
<path d="M4572 7588 c-19 -19 -14 -28 13 -28 18 0 25 5 25 20 0 22 -20 26 -38
8z"/>
<path d="M4803 7593 c9 -2 23 -2 30 0 6 3 -1 5 -18 5 -16 0 -22 -2 -12 -5z"/>
<path d="M5328 7593 c23 -2 61 -2 85 0 23 2 4 4 -43 4 -47 0 -66 -2 -42 -4z"/>
<path d="M5470 7565 l0 -35 -124 0 c-74 0 -127 4 -131 10 -4 6 -12 7 -18 3 -7
-4 -39 -11 -72 -14 l-60 -6 53 -1 c56 -2 73 -21 20 -23 l-33 -1 35 -8 c19 -5
36 -6 37 -2 2 4 42 5 89 3 72 -3 89 0 96 13 6 11 23 16 58 16 l50 0 1 -37 c0
-33 1 -35 9 -15 5 12 7 29 4 37 -5 13 35 15 327 15 183 0 330 2 328 5 -3 2
-151 5 -331 6 l-326 2 3 33 c1 19 -2 34 -6 34 -5 0 -9 -16 -9 -35z m-150 -55
c0 -6 -27 -10 -61 -10 -37 0 -58 4 -54 10 3 6 31 10 61 10 30 0 54 -4 54 -10z"/>
<path d="M5250 7581 c0 -6 -3 -10 -7 -10 -5 1 -17 1 -28 0 -16 -1 -17 -3 -5
-11 18 -11 217 -13 224 -1 3 5 -27 11 -67 14 -39 3 -82 8 -94 12 -15 5 -23 3
-23 -4z"/>
<path d="M4720 7565 c-10 -12 -9 -16 4 -21 18 -7 49 13 40 27 -8 14 -30 11
-44 -6z"/>
<path d="M4860 7573 c-50 -8 -55 -16 -15 -24 46 -9 78 -3 72 14 -4 14 -21 16
-57 10z"/>
<path d="M6295 7560 c3 -5 8 -10 11 -10 2 0 4 5 4 10 0 6 -5 10 -11 10 -5 0
-7 -4 -4 -10z"/>
<path d="M6430 7560 c-10 -7 8 -10 60 -10 41 0 82 5 90 10 10 7 -8 10 -60 10
-41 0 -82 -5 -90 -10z"/>
<path d="M5023 7546 c-5 -10 -30 -16 -73 -19 -60 -3 -58 -3 21 -5 84 -2 99 3
99 34 0 11 -40 2 -47 -10z"/>
<path d="M4773 7523 c20 -2 54 -2 75 0 20 2 3 4 -38 4 -41 0 -58 -2 -37 -4z"/>
<path d="M4256 7502 c-5 -9 24 -13 204 -29 78 -7 81 -8 40 -14 -29 -4 -1 -7
78 -7 67 -1 125 -2 129 -3 4 0 9 4 11 9 1 5 -28 12 -65 15 -102 8 -292 26
-345 32 -25 3 -49 1 -52 -3z"/>
<path d="M4710 7490 c0 -6 11 -8 28 -4 39 10 40 14 4 14 -18 0 -32 -5 -32 -10z"/>
<path d="M6323 7493 c26 -2 67 -2 90 0 23 2 2 3 -48 3 -49 0 -68 -1 -42 -3z"/>
<path d="M7135 7460 c28 -12 145 -12 145 0 0 6 -34 10 -82 9 -56 0 -76 -3 -63
-9z"/>
<path d="M4870 7450 c0 -5 6 -10 13 -10 6 0 93 -7 192 -15 99 -8 198 -14 220
-14 l40 1 -35 9 c-19 4 -88 11 -152 15 -65 4 -118 10 -118 13 0 3 -36 7 -80 9
-51 2 -80 -1 -80 -8z"/>
<path d="M5122 7453 c37 -2 100 -2 140 0 40 1 10 3 -67 3 -77 0 -110 -1 -73
-3z"/>
<path d="M6228 7453 c23 -2 61 -2 85 0 23 2 4 4 -43 4 -47 0 -66 -2 -42 -4z"/>
<path d="M7668 7293 c-24 -6 -23 -23 1 -23 26 0 51 10 51 21 0 9 -22 10 -52 2z"/>
<path d="M5470 6987 c0 -42 4 -77 8 -77 9 0 8 137 -1 147 -4 3 -7 -28 -7 -70z"/>
<path d="M5758 7053 c12 -2 30 -2 40 0 9 3 -1 5 -23 4 -22 0 -30 -2 -17 -4z"/>
<path d="M6750 6987 c0 -42 4 -77 8 -77 9 0 8 137 -1 147 -4 3 -7 -28 -7 -70z"/>
<path d="M6783 7053 c9 -2 23 -2 30 0 6 3 -1 5 -18 5 -16 0 -22 -2 -12 -5z"/>
<path d="M8028 6873 c-2 -104 -1 -227 0 -275 l3 -87 -38 -4 -38 -4 37 -1 c25
-1 38 -7 41 -19 3 -10 5 116 6 280 0 163 -1 297 -4 297 -3 0 -6 -84 -7 -187z"/>
<path d="M5884 7006 c0 -15 8 -27 19 -30 11 -3 16 0 13 7 -3 7 -9 20 -12 30
-9 25 -22 21 -20 -7z"/>
<path d="M6490 7020 c0 -6 33 -10 80 -10 47 0 80 4 80 10 0 6 -33 10 -80 10
-47 0 -80 -4 -80 -10z"/>
<path d="M7015 7020 c-4 -6 25 -10 80 -10 55 0 84 4 80 10 -3 6 -39 10 -80 10
-41 0 -77 -4 -80 -10z"/>
<path d="M7470 7020 c0 -6 58 -10 155 -10 97 0 155 4 155 10 0 6 -58 10 -155
10 -97 0 -155 -4 -155 -10z"/>
<path d="M4260 7005 c0 -8 5 -15 11 -15 6 0 9 -9 6 -20 -3 -11 -2 -20 3 -20
14 0 18 36 5 53 -15 21 -25 22 -25 2z"/>
<path d="M4720 7005 c0 -8 5 -15 11 -15 6 0 8 -9 4 -20 -4 -12 -2 -20 5 -20 6
0 9 4 5 9 -3 5 -1 12 5 16 6 4 5 13 -3 25 -14 24 -27 26 -27 5z"/>
<path d="M5320 7006 c0 -10 -13 -16 -37 -19 -24 -3 -20 -3 10 -2 43 2 48 0 44
-16 -3 -11 -2 -19 3 -19 4 0 10 10 14 23 8 32 7 39 -4 32 -5 -3 -10 -1 -10 4
0 6 -4 11 -10 11 -5 0 -10 -6 -10 -14z"/>
<path d="M5694 7008 c-5 -9 -25 -19 -44 -21 -20 -2 -14 -3 13 -2 43 2 48 0 44
-16 -3 -11 -1 -19 4 -19 5 0 9 1 9 3 0 1 4 17 10 35 7 28 7 32 -4 22 -11 -8
-15 -8 -18 2 -3 9 -7 8 -14 -4z"/>
<path d="M6000 7005 c0 -8 5 -15 11 -15 6 0 8 -9 4 -20 -4 -13 -2 -20 6 -20 7
0 9 3 6 7 -4 3 -3 11 3 18 6 7 3 17 -10 28 -17 14 -20 14 -20 2z"/>
<path d="M6300 7005 c0 -8 5 -15 11 -15 6 0 9 -9 6 -20 -3 -11 -2 -20 3 -20
15 0 19 43 5 56 -18 18 -25 18 -25 -1z"/>
<path d="M6820 7006 c0 -8 -8 -17 -17 -19 -10 -2 -5 -3 11 -1 24 3 28 1 23
-16 -3 -11 -2 -20 3 -20 4 0 10 10 14 23 8 32 7 39 -4 32 -5 -3 -10 -1 -10 4
0 6 -4 11 -10 11 -5 0 -10 -6 -10 -14z"/>
<path d="M7280 7005 c0 -8 5 -15 11 -15 6 0 8 -9 4 -20 -4 -13 -2 -20 6 -20 7
0 9 3 6 7 -4 3 -3 11 3 18 6 7 3 17 -10 28 -17 14 -20 14 -20 2z"/>
<path d="M7880 7006 c0 -10 -13 -16 -37 -19 -24 -3 -20 -3 10 -2 43 2 48 0 44
-16 -3 -11 -2 -19 3 -19 4 0 10 10 14 23 8 32 7 39 -4 32 -5 -3 -10 -1 -10 4
0 6 -4 11 -10 11 -5 0 -10 -6 -10 -14z"/>
<path d="M5582 6972 c1 -19 6 -28 18 -28 15 0 15 3 2 28 -7 15 -15 28 -17 28
-2 0 -3 -13 -3 -28z"/>
<path d="M4228 6983 c7 -3 16 -2 19 1 4 3 -2 6 -13 5 -11 0 -14 -3 -6 -6z"/>
<path d="M4337 6983 c18 -2 50 -2 70 0 21 2 7 4 -32 4 -38 0 -55 -2 -38 -4z"/>
<path d="M4453 6984 c3 -3 40 -6 82 -6 42 0 79 3 82 6 4 3 -33 6 -82 6 -49 0
-86 -3 -82 -6z"/>
<path d="M4648 6983 c12 -2 32 -2 45 0 12 2 2 4 -23 4 -25 0 -35 -2 -22 -4z"/>
<path d="M4797 6983 c18 -2 50 -2 70 0 21 2 7 4 -32 4 -38 0 -55 -2 -38 -4z"/>
<path d="M4910 6983 c0 -5 70 -8 155 -8 85 0 155 3 155 8 0 4 -70 7 -155 7
-85 0 -155 -3 -155 -7z"/>
<path d="M5393 6983 c15 -2 37 -2 50 0 12 2 0 4 -28 4 -27 0 -38 -2 -22 -4z"/>
<path d="M5518 6983 c12 -2 30 -2 40 0 9 3 -1 5 -23 4 -22 0 -30 -2 -17 -4z"/>
<path d="M5767 6983 c18 -2 50 -2 70 0 21 2 7 4 -32 4 -38 0 -55 -2 -38 -4z"/>
<path d="M5943 6983 c9 -2 25 -2 35 0 9 3 1 5 -18 5 -19 0 -27 -2 -17 -5z"/>
<path d="M6078 6983 c17 -2 47 -2 65 0 17 2 3 4 -33 4 -36 0 -50 -2 -32 -4z"/>
<path d="M6187 6967 c3 -14 12 -23 24 -24 18 -2 18 -1 1 22 -22 31 -30 31 -25
2z"/>
<path d="M6228 6983 c12 -2 32 -2 45 0 12 2 2 4 -23 4 -25 0 -35 -2 -22 -4z"/>
<path d="M6388 6983 c23 -2 61 -2 85 0 23 2 4 4 -43 4 -47 0 -66 -2 -42 -4z"/>
<path d="M6548 6983 c18 -2 45 -2 60 0 15 2 0 4 -33 4 -33 0 -45 -2 -27 -4z"/>
<path d="M6688 6983 c12 -2 30 -2 40 0 9 3 -1 5 -23 4 -22 0 -30 -2 -17 -4z"/>
<path d="M6897 6983 c18 -2 50 -2 70 0 21 2 7 4 -32 4 -38 0 -55 -2 -38 -4z"/>
<path d="M7068 6983 c18 -2 45 -2 60 0 15 2 0 4 -33 4 -33 0 -45 -2 -27 -4z"/>
<path d="M7208 6983 c12 -2 32 -2 45 0 12 2 2 4 -23 4 -25 0 -35 -2 -22 -4z"/>
<path d="M7358 6983 c17 -2 47 -2 65 0 17 2 3 4 -33 4 -36 0 -50 -2 -32 -4z"/>
<path d="M7543 6983 c48 -2 125 -2 170 0 45 1 6 3 -88 3 -93 0 -130 -2 -82 -3z"/>
<path d="M7948 6983 c12 -2 32 -2 45 0 12 2 2 4 -23 4 -25 0 -35 -2 -22 -4z"/>
<path d="M3395 6970 c-3 -5 1 -10 9 -10 8 0 18 5 21 10 3 6 -1 10 -9 10 -8 0
-18 -4 -21 -10z"/>
<path d="M4450 6950 c0 -5 5 -10 10 -10 6 0 10 5 10 10 0 6 -4 10 -10 10 -5 0
-10 -4 -10 -10z"/>
<path d="M4600 6950 c0 -5 5 -10 10 -10 6 0 10 5 10 10 0 6 -4 10 -10 10 -5 0
-10 -4 -10 -10z"/>
<path d="M5885 6950 c3 -5 8 -10 11 -10 2 0 4 5 4 10 0 6 -5 10 -11 10 -5 0
-7 -4 -4 -10z"/>
<path d="M6640 6950 c0 -5 5 -10 11 -10 5 0 7 5 4 10 -3 6 -8 10 -11 10 -2 0
-4 -4 -4 -10z"/>
<path d="M7010 6950 c0 -5 5 -10 10 -10 6 0 10 5 10 10 0 6 -4 10 -10 10 -5 0
-10 -4 -10 -10z"/>
<path d="M7165 6950 c3 -5 8 -10 11 -10 2 0 4 5 4 10 0 6 -5 10 -11 10 -5 0
-7 -4 -4 -10z"/>
<path d="M5849 6928 c-5 -18 -2 -91 4 -95 5 -3 3 -9 -4 -14 -25 -15 5 -33 31
-19 17 9 19 14 9 26 -9 11 -9 14 2 14 9 0 10 3 2 11 -7 7 -8 21 -3 39 5 16 6
31 2 34 -5 6 -41 9 -43 4z"/>
<path d="M6456 6922 c-3 -5 -3 -23 -1 -40 3 -20 0 -32 -7 -32 -9 0 -9 -3 -1
-11 6 -6 9 -17 7 -24 -7 -18 15 -30 29 -16 7 7 12 39 13 71 1 51 -2 60 -17 60
-10 0 -20 -4 -23 -8z"/>
<path d="M7129 6928 c-5 -20 -3 -130 3 -134 4 -3 17 0 28 6 17 9 19 14 9 26
-9 11 -9 14 0 14 7 0 9 5 5 12 -5 7 -7 27 -5 45 2 28 -1 33 -18 33 -12 0 -21
-1 -22 -2z"/>
<path d="M7736 6922 c-3 -5 -3 -23 -1 -40 3 -20 0 -32 -7 -32 -9 0 -9 -3 -1
-11 6 -6 9 -17 7 -24 -8 -20 15 -28 33 -13 9 7 18 12 20 11 14 -11 12 0 -3 12
-19 14 -19 14 1 15 18 1 19 1 3 11 -13 7 -17 19 -13 44 3 29 1 35 -15 35 -10
0 -21 -4 -24 -8z"/>
<path d="M5176 6904 c-9 -23 -8 -24 19 -24 18 0 25 5 25 20 0 24 -35 28 -44 4z"/>
<path d="M4424 6888 c-11 -18 -12 -48 -2 -54 15 -9 49 7 41 19 -4 7 -6 20 -5
30 4 20 -23 24 -34 5z"/>
<path d="M4574 6888 c-11 -18 -12 -48 -2 -54 4 -3 17 -2 29 1 15 5 17 10 9 20
-8 9 -8 15 0 20 6 3 8 11 5 16 -9 13 -32 11 -41 -3z"/>
<path d="M4876 6891 c-3 -5 -3 -16 0 -25 4 -10 1 -16 -7 -16 -9 0 -10 -3 -2
-11 6 -6 20 -8 31 -5 15 5 20 14 18 34 -3 27 -29 42 -40 23z"/>
<path d="M5026 6891 c-3 -5 -3 -16 0 -25 4 -10 1 -16 -7 -16 -9 0 -10 -3 -2
-11 20 -20 52 -1 50 29 -2 27 -29 42 -41 23z"/>
<path d="M5555 6892 c-11 -7 -14 -86 -4 -96 8 -8 64 9 62 20 -2 5 -7 9 -12 9
-5 0 -13 3 -17 8 -4 4 -2 7 5 7 7 0 9 5 4 13 -4 6 -6 20 -5 30 3 17 -15 23
-33 9z"/>
<path d="M6156 6891 c-3 -5 -3 -16 0 -25 4 -10 1 -16 -7 -16 -10 0 -10 -3 -2
-11 6 -6 9 -17 7 -24 -7 -18 14 -29 29 -16 19 15 15 95 -5 99 -9 2 -19 -1 -22
-7z"/>
<path d="M6615 6892 c-12 -8 -14 -86 -3 -98 11 -10 40 17 34 33 -3 7 -1 13 5
13 6 0 7 6 2 13 -4 6 -6 20 -5 30 3 17 -15 23 -33 9z"/>
<path d="M6984 6888 c-11 -17 -13 -88 -3 -94 5 -2 17 1 28 8 15 9 17 15 9 25
-7 9 -7 13 1 13 7 0 9 5 4 13 -4 6 -6 20 -5 30 4 19 -23 24 -34 5z"/>
<path d="M7430 6885 c-10 -12 -10 -15 1 -15 10 0 10 -3 1 -12 -8 -8 -9 -15 -1
-25 8 -9 8 -13 0 -13 -16 0 -13 -20 4 -26 23 -9 48 15 34 32 -8 9 -8 14 -1 14
16 0 7 55 -10 58 -8 2 -21 -4 -28 -13z"/>
<path d="M7586 6891 c-3 -5 -3 -16 0 -25 4 -9 1 -16 -6 -16 -10 0 -10 -3 0
-15 10 -12 10 -15 -1 -15 -10 0 -9 -4 3 -17 14 -13 20 -14 32 -4 8 7 12 19 9
27 -3 8 0 14 7 14 10 0 10 3 1 14 -6 8 -10 20 -9 27 4 15 -28 24 -36 10z"/>
<path d="M5470 6809 c0 -49 -3 -69 -10 -59 -5 8 -12 11 -16 7 -4 -3 -1 -13 5
-21 7 -8 10 -20 6 -26 -3 -5 -1 -10 4 -10 6 0 11 -16 11 -37 0 -20 3 -34 6
-30 8 8 8 237 0 244 -3 4 -6 -27 -6 -68z"/>
<path d="M5171 6851 c-11 -7 -9 -10 8 -16 22 -7 41 0 41 16 0 11 -30 12 -49 0z"/>
<path d="M5719 6820 c-21 -14 -2 -24 23 -13 17 7 19 11 6 15 -8 4 -21 2 -29
-2z"/>
<path d="M4593 6812 c-25 -4 -38 -28 -18 -35 7 -3 21 3 31 14 20 22 18 26 -13
21z"/>
<path d="M5193 6809 c-23 -9 -30 -24 -14 -33 11 -7 45 18 40 31 -3 7 -12 7
-26 2z"/>
<path d="M4417 6796 c-7 -18 17 -28 32 -13 16 16 13 27 -8 27 -10 0 -21 -6
-24 -14z"/>
<path d="M4875 6800 c-9 -15 3 -30 20 -24 23 9 27 34 5 34 -10 0 -22 -4 -25
-10z"/>
<path d="M5025 6800 c-9 -15 3 -30 20 -24 23 9 27 34 5 34 -10 0 -22 -4 -25
-10z"/>
<path d="M4840 6777 c0 -9 -3 -16 -7 -16 -18 3 -33 -2 -33 -10 0 -5 9 -7 20
-4 16 4 20 0 20 -17 0 -17 -4 -21 -20 -17 -11 3 -20 1 -20 -4 0 -8 15 -13 33
-10 4 0 7 -7 7 -16 1 -15 2 -16 9 -3 10 17 8 96 -2 106 -4 4 -7 0 -7 -9z"/>
<path d="M3959 6773 c-6 -37 -5 -74 2 -85 5 -8 9 7 9 40 0 28 -2 52 -5 52 -3
0 -6 -3 -6 -7z"/>
<path d="M3415 6750 c3 -5 12 -10 20 -10 8 0 17 5 20 10 4 6 -5 10 -20 10 -15
0 -24 -4 -20 -10z"/>
<path d="M4375 6750 c3 -5 13 -10 21 -10 8 0 14 5 14 10 0 6 -9 10 -21 10 -11
0 -17 -4 -14 -10z"/>
<path d="M4908 6733 c6 -2 18 -2 25 0 6 3 1 5 -13 5 -14 0 -19 -2 -12 -5z"/>
<path d="M5648 6723 c39 -2 105 -2 145 0 39 1 7 3 -73 3 -80 0 -112 -2 -72 -3z"/>
<path d="M5971 6694 c0 -11 3 -14 6 -6 3 7 2 16 -1 19 -3 4 -6 -2 -5 -13z"/>
<path d="M5470 6547 c0 -42 3 -77 8 -77 9 0 9 136 -1 146 -4 4 -7 -27 -7 -69z"/>
<path d="M4300 6600 c0 -6 33 -10 79 -10 44 0 83 5 86 10 4 6 -25 10 -79 10
-51 0 -86 -4 -86 -10z"/>
<path d="M6750 6560 c0 -50 0 -50 -33 -50 -21 0 -39 8 -50 21 -10 11 -21 19
-24 16 -12 -13 39 -47 72 -47 24 0 35 -5 35 -15 0 -8 3 -15 8 -15 4 0 7 32 7
70 1 39 -3 70 -7 70 -4 0 -8 -22 -8 -50z"/>
<path d="M4685 6579 l-80 -5 78 -2 c62 -2 81 -6 97 -22 11 -11 23 -20 27 -20
4 0 2 5 -5 12 -19 19 -14 27 21 31 l32 4 -35 -1 c-20 0 -40 2 -45 5 -6 2 -46
1 -90 -2z"/>
<path d="M4225 6575 c23 -8 85 -10 85 -3 0 4 -21 8 -47 7 -27 0 -43 -2 -38 -4z"/>
<path d="M4498 6573 c12 -2 32 -2 45 0 12 2 2 4 -23 4 -25 0 -35 -2 -22 -4z"/>
<path d="M4876 6546 l2 -35 -76 -3 c-43 -2 -107 -2 -145 0 -67 3 -67 3 -61 29
5 17 3 24 -4 19 -6 -3 -13 0 -16 6 -3 7 -3 -2 0 -19 l6 -33 -76 0 c-64 0 -77
-3 -86 -19 -6 -12 -6 -22 -1 -25 14 -9 41 4 41 20 0 11 26 14 130 14 123 0
130 -1 130 -20 0 -26 14 -25 39 1 15 16 30 20 67 19 27 -1 117 0 199 1 l150 3
-140 6 c-115 4 -140 8 -141 20 -1 8 -2 23 -3 33 0 9 -5 17 -10 17 -4 0 -7 -15
-5 -34z"/>
<path d="M5033 6573 c112 -3 137 -6 137 -18 0 -8 5 -15 11 -15 6 0 9 -9 6 -20
-3 -11 -1 -20 4 -20 5 0 9 3 9 8 0 4 3 18 7 32 3 14 3 22 -2 18 -4 -4 -14 -1
-22 7 -11 12 -43 15 -151 13 l-137 -2 138 -3z"/>
<path d="M5278 6573 c34 -2 90 -2 125 0 34 2 6 3 -63 3 -69 0 -97 -1 -62 -3z"/>
<path d="M5530 6572 c19 -1 42 -5 50 -8 23 -8 160 -10 160 -2 0 4 24 8 53 10
28 2 -27 3 -123 3 -96 0 -159 -1 -140 -3z"/>
<path d="M5892 6575 c7 -7 239 -8 246 -1 3 3 -52 6 -123 6 -71 0 -126 -2 -123
-5z"/>
<path d="M6185 6570 c-3 -5 -12 -7 -20 -3 -9 3 -15 -1 -15 -10 0 -8 5 -17 12
-19 25 -9 -6 -28 -45 -28 -32 0 -45 5 -55 21 -7 12 -16 19 -18 16 -3 -3 1 -14
8 -26 12 -20 20 -21 163 -19 107 2 124 3 58 5 l-92 4 2 27 2 27 133 2 c111 2
132 0 132 -12 0 -8 5 -15 10 -15 6 0 10 -7 10 -15 0 -25 -81 -20 -103 6 -10
11 -21 18 -25 14 -4 -4 1 -12 11 -19 9 -7 17 -17 17 -22 0 -10 110 -6 110 4 0
4 3 18 7 32 3 14 3 22 -2 18 -4 -4 -14 -1 -22 7 -11 12 -44 15 -143 15 -71 0
-131 -4 -135 -10z"/>
<path d="M6492 6575 c7 -7 239 -8 246 -1 3 3 -52 6 -123 6 -71 0 -126 -2 -123
-5z"/>
<path d="M6810 6572 c19 -1 42 -5 50 -8 23 -8 160 -10 160 -2 0 4 24 8 53 10
28 2 -27 3 -123 3 -96 0 -159 -1 -140 -3z"/>
<path d="M7172 6575 c3 -3 65 -6 137 -6 120 0 150 -6 120 -25 -8 -4 -7 -9 2
-15 12 -8 11 -11 -1 -19 -8 -5 -10 -10 -5 -10 26 -2 329 1 331 3 7 6 16 61 9
55 -4 -4 -14 -1 -22 7 -11 12 -43 15 -151 13 l-137 -2 138 -3 c112 -3 137 -6
137 -18 0 -8 5 -15 10 -15 6 0 10 -7 10 -15 0 -13 -23 -15 -150 -15 l-150 0 0
35 0 35 -142 0 c-78 0 -139 -2 -136 -5z"/>
<path d="M7838 6573 c34 -2 90 -2 125 0 34 2 6 3 -63 3 -69 0 -97 -1 -62 -3z"/>
<path d="M5850 6555 c0 -8 5 -15 11 -15 6 0 9 -6 7 -12 -4 -10 -54 -14 -189
-18 -163 -5 -152 -6 96 -6 154 0 239 2 189 3 -89 4 -91 4 -87 27 3 15 -1 25
-11 29 -10 4 -16 1 -16 -8z"/>
<path d="M7127 6563 c-4 -7 -3 -14 3 -18 5 -3 10 -13 10 -20 0 -12 -33 -15
-182 -18 -102 -1 -59 -3 97 -3 154 0 238 2 187 3 l-92 4 6 26 c5 17 3 24 -4
19 -6 -3 -12 -1 -14 6 -3 9 -6 9 -11 1z"/>
<path d="M4295 6540 c-3 -5 -1 -10 4 -10 6 0 11 5 11 10 0 6 -2 10 -4 10 -3 0
-8 -4 -11 -10z"/>
<path d="M4755 6540 c-3 -5 -1 -10 4 -10 6 0 11 5 11 10 0 6 -2 10 -4 10 -3 0
-8 -4 -11 -10z"/>
<path d="M5363 6533 c5 -21 2 -22 -77 -25 l-81 -3 98 -5 c53 -3 97 -3 97 0 0
3 -10 16 -21 30 -20 24 -21 24 -16 3z"/>
<path d="M7310 6546 c0 -3 10 -16 23 -28 17 -19 28 -23 52 -17 l30 7 -32 1
c-21 1 -36 8 -43 21 -9 17 -30 28 -30 16z"/>
<path d="M2710 6520 l-165 -6 238 -2 c150 -1 237 -6 237 -12 0 -5 11 -10 25
-10 14 0 25 5 25 10 0 6 98 10 273 11 149 1 265 3 257 5 -29 6 -727 9 -890 4z"/>
<path d="M3772 6513 c70 -2 187 -2 260 0 73 1 16 3 -127 3 -143 0 -203 -2
-133 -3z"/>
<path d="M4176 6506 c5 -12 15 -15 45 -10 31 5 39 3 39 -9 0 -25 17 -29 37 -8
12 13 35 21 68 24 31 2 18 4 -35 4 -47 1 -102 4 -123 8 -32 6 -36 5 -31 -9z"/>
<path d="M7920 6512 c0 -12 19 -26 26 -19 2 2 -2 10 -11 17 -9 8 -15 8 -15 2z"/>
<path d="M5423 6503 c9 -2 23 -2 30 0 6 3 -1 5 -18 5 -16 0 -22 -2 -12 -5z"/>
<path d="M6533 6503 c26 -2 67 -2 90 0 23 2 2 3 -48 3 -49 0 -68 -1 -42 -3z"/>
<path d="M7803 6503 c20 -2 54 -2 75 0 20 2 3 4 -38 4 -41 0 -58 -2 -37 -4z"/>
<path d="M6003 6455 c-3 -9 -3 -18 -1 -21 9 -9 38 8 38 22 0 19 -29 18 -37 -1z"/>
<path d="M6307 6455 c-4 -8 -2 -17 4 -21 11 -6 39 13 39 27 0 15 -37 10 -43
-6z"/>
<path d="M6607 6455 c-4 -8 -2 -17 4 -21 11 -6 39 13 39 27 0 15 -37 10 -43
-6z"/>
<path d="M6827 6455 c-4 -8 -2 -17 4 -21 11 -6 39 13 39 27 0 15 -37 10 -43
-6z"/>
<path d="M6976 6455 c-6 -17 17 -31 34 -20 5 3 10 13 10 21 0 19 -36 18 -44
-1z"/>
<path d="M7287 6463 c-4 -3 -7 -12 -7 -20 0 -20 28 -15 40 7 9 17 8 20 -8 20
-10 0 -22 -3 -25 -7z"/>
<path d="M7890 6410 c-12 -7 -12 -12 -3 -21 9 -9 16 -9 28 1 29 24 9 42 -25
20z"/>
<path d="M2633 6373 c9 -2 23 -2 30 0 6 3 -1 5 -18 5 -16 0 -22 -2 -12 -5z"/>
<path d="M4017 6324 c-4 -4 -4 -10 -1 -15 6 -10 34 0 34 12 0 10 -24 12 -33 3z"/>
<path d="M4493 6313 c9 -2 23 -2 30 0 6 3 -1 5 -18 5 -16 0 -22 -2 -12 -5z"/>
<path d="M3955 6220 c0 -33 3 -60 8 -60 4 0 7 27 7 60 0 33 -3 60 -7 60 -5 0
-8 -27 -8 -60z"/>
<path d="M4420 6264 c0 -9 7 -14 17 -12 25 5 28 28 4 28 -12 0 -21 -6 -21 -16z"/>
<path d="M4557 6266 c-4 -9 2 -13 16 -12 11 1 22 7 25 14 5 17 -34 16 -41 -2z"/>
<path d="M4828 6273 c6 -2 12 -13 12 -24 0 -10 -6 -19 -12 -19 -9 0 -8 -4 2
-10 13 -9 13 -11 0 -20 -10 -6 -11 -10 -2 -10 6 0 12 -5 12 -11 0 -5 -4 -7
-10 -4 -5 3 -10 1 -10 -4 0 -6 5 -11 10 -11 6 0 10 -37 10 -90 0 -49 3 -90 8
-90 4 0 6 34 5 75 l-2 75 29 0 c22 0 28 -4 24 -15 -4 -10 0 -15 15 -15 12 0
21 6 21 15 0 11 12 15 44 15 44 0 44 0 51 -40 5 -27 3 -46 -5 -55 -10 -13 -8
-15 13 -15 28 0 60 26 54 44 -2 6 -14 16 -26 22 -19 10 -20 12 -6 18 9 3 13
10 10 16 -4 7 59 10 185 10 115 0 189 -4 185 -9 -10 -17 18 -24 30 -8 9 13 28
17 70 17 32 0 56 3 52 6 -3 3 -92 5 -197 5 -167 -1 -191 1 -186 14 3 10 -1 15
-13 15 -10 0 -22 -7 -25 -16 -5 -13 -17 -16 -63 -12 -31 3 -59 10 -61 16 -5
16 -23 15 -19 0 1 -10 -22 -13 -89 -14 l-91 -2 2 69 c2 65 1 69 -19 68 -11 0
-15 -3 -8 -6z"/>
<path d="M3428 6243 c7 -3 16 -2 19 1 4 3 -2 6 -13 5 -11 0 -14 -3 -6 -6z"/>
<path d="M5311 6240 c0 -8 4 -24 8 -34 7 -19 8 -19 15 -1 4 12 1 24 -9 34 -13
13 -15 13 -14 1z"/>
<path d="M5580 6235 c0 -8 4 -15 10 -15 5 0 7 -8 4 -17 -5 -15 -4 -16 5 -3 15
21 14 37 -4 44 -9 3 -15 0 -15 -9z"/>
<path d="M5783 6243 c20 -2 54 -2 75 0 20 2 3 4 -38 4 -41 0 -58 -2 -37 -4z"/>
<path d="M4432 6209 c-19 -30 -8 -34 12 -4 9 14 13 25 9 25 -5 0 -14 -9 -21
-21z"/>
<path d="M4935 6220 c4 -6 62 -10 140 -10 78 0 136 4 140 10 4 6 -45 10 -140
10 -95 0 -144 -4 -140 -10z"/>
<path d="M5480 6210 c6 -11 15 -20 20 -20 6 0 5 9 -2 20 -7 11 -16 20 -21 20
-4 0 -3 -9 3 -20z"/>
<path d="M5970 6223 c0 -5 33 -7 72 -5 132 5 145 9 36 10 -60 1 -108 -1 -108
-5z"/>
<path d="M6342 6223 c70 -2 187 -2 260 0 73 1 16 3 -127 3 -143 0 -203 -2
-133 -3z"/>
<path d="M6746 6215 c4 -8 16 -15 29 -15 13 0 25 7 29 15 4 12 -3 15 -29 15
-26 0 -33 -3 -29 -15z"/>
<path d="M6942 6223 c70 -2 187 -2 260 0 73 1 16 3 -127 3 -143 0 -203 -2
-133 -3z"/>
<path d="M7638 6223 c163 -2 262 -7 262 -13 0 -13 43 -13 56 0 6 6 115 11 264
13 140 1 8 2 -295 2 -302 0 -432 -1 -287 -2z"/>
<path d="M8607 6173 c18 -2 50 -2 70 0 21 2 7 4 -32 4 -38 0 -55 -2 -38 -4z"/>
<path d="M3782 6135 c7 -7 1040 -7 1046 0 3 3 -232 5 -523 5 -291 0 -526 -2
-523 -5z"/>
<path d="M8465 6120 c-150 -5 -135 -6 129 -8 165 -1 297 0 295 2 -9 7 -263 11
-424 6z"/>
<path d="M5170 6110 c0 -13 20 -13 40 0 12 8 9 10 -12 10 -16 0 -28 -4 -28
-10z"/>
<path d="M6938 6113 c94 -2 250 -2 345 0 94 1 17 3 -173 3 -190 0 -267 -2
-172 -3z"/>
<path d="M7473 6108 c2 -7 19 -13 37 -13 18 0 35 6 38 13 2 8 -9 12 -38 12
-29 0 -40 -4 -37 -12z"/>
<path d="M7733 6113 c92 -2 242 -2 335 0 92 1 16 3 -168 3 -184 0 -260 -2
-167 -3z"/>
<path d="M2650 6100 c0 -5 5 -10 10 -10 6 0 10 5 10 10 0 6 -4 10 -10 10 -5 0
-10 -4 -10 -10z"/>
<path d="M5286 6101 c-4 -5 -2 -12 3 -15 5 -4 12 -2 15 3 4 5 2 12 -3 15 -5 4
-12 2 -15 -3z"/>
<path d="M6135 6100 c3 -5 12 -10 20 -10 8 0 17 5 20 10 4 6 -5 10 -20 10 -15
0 -24 -4 -20 -10z"/>
<path d="M2569 6087 c-18 -14 -14 -37 6 -37 7 0 24 6 37 13 20 10 23 15 12 25
-16 15 -34 15 -55 -1z"/>
<path d="M3950 6090 c0 -5 5 -10 10 -10 6 0 10 5 10 10 0 6 -4 10 -10 10 -5 0
-10 -4 -10 -10z"/>
<path d="M5198 6093 c-30 -8 -29 -31 2 -38 32 -7 73 10 67 28 -4 13 -41 18
-69 10z m42 -18 c-7 -8 -17 -15 -22 -15 -6 0 -5 7 2 15 7 8 17 15 22 15 6 0 5
-7 -2 -15z"/>
<path d="M4906 6075 c-3 -9 0 -15 8 -15 7 0 19 7 26 15 10 12 9 15 -8 15 -11
0 -22 -7 -26 -15z"/>
<path d="M5450 6075 c0 -8 4 -15 9 -15 5 0 14 7 21 15 10 13 9 15 -9 15 -12 0
-21 -6 -21 -15z"/>
<path d="M3738 6068 c-8 -7 -18 -21 -21 -30 -8 -23 25 -24 48 -2 27 28 4 56
-27 32z"/>
<path d="M3114 6060 c-39 -15 -35 -28 4 -14 37 13 76 10 100 -9 7 -5 15 -8 18
-5 7 8 -61 38 -83 37 -10 0 -28 -4 -39 -9z"/>
<path d="M3810 6050 c0 -5 5 -10 10 -10 6 0 10 5 10 10 0 6 -4 10 -10 10 -5 0
-10 -4 -10 -10z"/>
<path d="M4253 6033 c-10 -10 -17 -17 -14 -16 2 2 11 -3 19 -10 13 -10 15 -9
9 5 -9 25 52 35 92 15 17 -9 31 -12 31 -8 0 13 -49 31 -84 31 -19 0 -42 -8
-53 -17z"/>
<path d="M2573 6023 c15 -2 37 -2 50 0 12 2 0 4 -28 4 -27 0 -38 -2 -22 -4z"/>
<path d="M4289 6008 c-11 -8 -9 -8 6 -4 20 6 20 6 1 -9 -19 -14 -19 -15 5 -15
16 0 26 6 26 15 0 19 -20 26 -38 13z"/>
<path d="M3060 5992 c-39 -32 -6 -57 35 -27 17 14 18 17 4 31 -14 13 -18 13
-39 -4z"/>
<path d="M3216 5991 c-20 -22 -14 -41 13 -41 27 0 54 33 39 48 -17 17 -32 15
-52 -7z m44 1 c0 -4 -9 -13 -20 -20 -23 -14 -26 -8 -7 13 13 16 27 19 27 7z"/>
<path d="M4890 5992 c-39 -31 -5 -58 36 -28 17 14 18 16 3 31 -14 15 -18 14
-39 -3z"/>
<path d="M2238 5983 c6 -2 18 -2 25 0 6 3 1 5 -13 5 -14 0 -19 -2 -12 -5z"/>
<path d="M3508 5983 c6 -2 18 -2 25 0 6 3 1 5 -13 5 -14 0 -19 -2 -12 -5z"/>
<path d="M3715 5980 c3 -5 8 -10 11 -10 2 0 4 5 4 10 0 6 -5 10 -11 10 -5 0
-7 -4 -4 -10z"/>
<path d="M3788 5983 c7 -3 16 -2 19 1 4 3 -2 6 -13 5 -11 0 -14 -3 -6 -6z"/>
<path d="M4223 5979 c-13 -5 -23 -15 -23 -24 0 -13 -35 -15 -280 -15 -273 0
-280 0 -280 20 0 11 -4 20 -10 20 -5 0 -10 -9 -10 -20 0 -20 -7 -20 -570 -20
-563 0 -570 0 -570 20 0 11 -5 20 -10 20 -6 0 -9 -3 -9 -7 5 -31 -3 -33 -178
-35 l-178 -2 180 -6 c151 -4 180 -7 180 -20 0 -13 -27 -15 -183 -16 -100 -1
-185 -4 -189 -8 -3 -3 79 -6 184 -6 l191 0 -2 -192 -1 -193 -85 -6 -85 -5 88
-2 c57 -1 87 -6 87 -13 0 -8 -18 -10 -60 -6 -32 4 -61 3 -64 -2 -3 -5 23 -12
58 -16 l64 -6 -2 -52 -1 -52 -163 -2 c-155 -2 -162 -2 -162 17 0 17 7 20 50
20 28 0 50 -4 50 -10 0 -15 46 -12 59 4 14 17 -11 42 -31 29 -7 -4 -49 -10
-93 -13 -72 -4 -81 -7 -90 -28 -9 -21 -16 -23 -85 -22 -41 1 -88 0 -105 -2
-16 -1 105 -5 270 -8 l300 -5 0 -35 0 -35 -320 -5 c-308 -5 -274 -9 130 -13
l190 -2 -2 -22 c-2 -13 2 -23 7 -23 6 0 10 11 10 25 0 23 4 25 44 25 39 0 44
-2 39 -20 -9 -33 26 -38 51 -7 18 22 30 27 68 27 41 0 46 -2 41 -20 -9 -33 26
-38 51 -7 l22 27 412 0 412 0 0 -25 c0 -14 5 -25 10 -25 6 0 10 11 10 25 0 24
2 25 75 25 41 0 75 3 75 8 0 4 -34 6 -75 4 l-75 -4 0 41 0 41 45 0 c35 0 43
-3 39 -15 -4 -9 -20 -15 -43 -16 l-36 -1 40 -9 c55 -11 95 -2 95 22 0 16 7 19
55 19 53 0 55 -1 45 -21 -7 -11 -10 -23 -7 -25 11 -11 57 9 62 27 6 17 17 19
140 19 128 0 133 -1 128 -20 -3 -11 0 -20 6 -20 6 0 11 9 11 20 0 20 7 20 280
20 242 0 280 -2 280 -15 0 -13 -27 -15 -185 -15 -124 0 -185 4 -185 11 0 5 -4
7 -10 4 -5 -3 -10 -16 -10 -28 0 -16 3 -18 12 -9 16 16 364 17 373 2 5 -8 11
-8 20 0 8 7 105 10 280 9 147 0 270 2 273 5 3 3 -121 6 -276 6 -244 0 -282 2
-282 15 0 13 47 15 365 15 201 0 364 -3 364 -7 -3 -19 2 -33 12 -33 6 0 9 9 6
20 -5 19 0 20 186 20 105 0 188 2 185 5 -3 3 -256 5 -562 5 -550 0 -556 0
-556 20 0 20 7 20 473 21 259 1 528 1 597 1 92 -1 116 2 90 8 -19 5 -61 10
-92 11 -103 4 -86 19 21 19 57 0 102 2 100 4 -2 3 -59 6 -127 7 -67 1 -122 6
-122 10 0 4 7 14 15 23 13 13 13 15 -7 19 -17 3 -14 5 10 6 17 0 32 6 32 12 0
6 -9 8 -20 4 -11 -4 -20 -2 -20 4 0 8 62 11 190 11 114 0 190 -4 190 -10 0
-12 -125 -17 -210 -8 -36 3 -78 4 -95 0 -53 -10 3 -20 83 -14 62 4 72 3 72
-12 0 -20 36 -21 44 -1 4 11 20 15 55 15 49 0 50 -1 54 -32 3 -29 4 -27 5 10
2 36 5 42 25 43 21 1 21 1 -3 9 -14 4 -113 8 -221 9 -181 1 -197 2 -195 18 2
27 -44 30 -51 4 -4 -17 -14 -21 -47 -23 l-41 -1 38 -4 c60 -7 42 -22 -30 -26
l-68 -3 67 -2 c53 -2 66 -5 62 -16 -3 -8 -1 -17 5 -21 8 -4 7 -11 -3 -20 -10
-11 -32 -13 -87 -8 -101 8 -80 -12 26 -25 64 -7 17 -10 -237 -11 -312 -1 -318
-1 -318 19 0 11 -4 20 -9 20 -5 0 -7 -9 -4 -20 5 -19 0 -20 -121 -20 l-126 0
0 50 c0 47 2 50 25 50 22 0 25 -5 25 -32 0 -25 3 -29 10 -18 5 8 7 23 4 33 -5
16 8 17 173 17 119 0 173 -4 163 -10 -10 -6 -11 -10 -2 -10 18 0 15 -27 -5
-39 -13 -8 10 -10 85 -11 111 0 143 17 40 22 -59 3 -61 4 -44 21 17 16 17 17
-1 19 -10 1 14 4 52 8 l70 6 -62 2 c-58 2 -81 13 -50 25 10 4 10 6 0 6 -7 1
-13 8 -13 16 0 12 15 15 74 15 41 0 77 3 79 8 3 4 -78 6 -179 4 -161 -2 -184
-1 -184 13 0 13 32 15 271 14 160 0 276 4 281 9 6 6 -93 8 -271 5 -279 -5
-281 -5 -281 16 l0 20 1153 0 c724 1 1146 -3 1137 -9 -12 -7 -12 -12 -2 -22
10 -10 14 -8 18 9 l6 23 556 0 c305 0 558 2 560 5 3 3 -247 5 -556 5 l-561 0
-4 23 c-4 22 -4 22 -6 0 -1 -22 -3 -22 -180 -23 -175 0 -179 0 -174 20 5 17 0
20 -27 20 -23 0 -33 -5 -37 -20 -5 -17 -14 -20 -58 -20 -48 0 -53 2 -48 20 4
16 1 20 -18 19 -39 -2 -74 -15 -71 -27 1 -9 -67 -12 -263 -12 -258 0 -265 1
-265 20 0 11 -4 20 -10 20 -5 0 -10 -9 -10 -20 0 -20 -7 -20 -570 -20 -563 0
-570 0 -570 20 0 11 -4 20 -9 20 -5 0 -8 -8 -7 -17 1 -16 -12 -18 -122 -21
l-123 -3 3 116 2 115 85 0 c46 0 82 3 79 6 -3 3 -42 5 -87 5 -73 0 -81 2 -81
19 0 18 16 19 557 20 306 0 559 3 562 5 2 3 -248 5 -557 5 l-561 0 -4 23 -4
22 -2 -22 c-1 -23 -1 -23 -180 -23 -174 0 -179 1 -174 20 5 17 0 20 -27 20
-23 0 -33 -5 -37 -20 -5 -17 -14 -20 -58 -20 -47 0 -53 2 -48 19 6 24 -6 31
-34 20z m183 -24 c-23 -17 -36 -19 -36 -6 0 11 18 19 40 20 11 0 10 -3 -4 -14z
m-1328 -43 c-3 -15 -30 -17 -301 -19 -292 -3 -297 -2 -297 17 0 20 6 20 301
20 277 -1 300 -2 297 -18z m542 -2 c0 -20 -6 -20 -265 -20 -254 1 -265 2 -265
20 0 18 11 19 265 20 259 0 265 0 265 -20z m1160 0 c0 -20 -6 -20 -265 -20
-242 1 -265 2 -266 18 -1 16 -2 16 -6 0 -4 -16 -29 -17 -304 -17 -290 0 -299
1 -299 19 0 20 11 20 570 20 564 0 570 0 570 -20z m-1734 -46 c-17 -17 -20
-27 -9 -37 3 -4 14 7 24 23 l19 30 270 0 270 0 0 -195 0 -195 -24 0 c-22 0
-24 4 -22 35 2 19 -1 35 -5 35 -5 0 -9 -16 -9 -35 l0 -35 -142 1 c-168 2 -272
-2 -240 -8 14 -3 22 -12 22 -24 0 -10 6 -19 13 -20 6 0 1 -5 -13 -10 -20 -8
-22 -12 -10 -19 11 -7 3 -10 -27 -10 -24 0 -43 3 -43 8 0 4 -31 8 -68 9 -85 3
-112 10 -112 28 0 9 6 12 18 8 15 -6 15 -4 -2 15 -16 18 -29 22 -75 21 -47 -1
-51 -3 -26 -9 17 -4 26 -8 21 -9 -5 0 -2 -8 5 -17 11 -14 11 -18 -4 -29 -15
-11 -15 -13 6 -22 14 -7 30 -7 39 -2 9 5 37 5 68 -1 29 -6 80 -10 114 -10 58
-1 60 -1 36 -15 -32 -18 -88 -19 -131 -2 -21 8 -48 11 -69 6 l-35 -6 35 -2
c19 -1 55 -8 78 -16 46 -16 95 -13 138 10 32 16 86 7 82 -14 -3 -14 -41 -16
-381 -18 -369 -2 -377 -2 -377 17 0 18 7 20 70 20 40 0 70 -4 70 -10 0 -6 35
-10 85 -10 47 0 85 4 85 10 0 5 26 11 58 13 31 2 -39 4 -155 5 l-213 2 0 30
c0 17 3 30 8 30 4 0 68 -7 142 -15 162 -17 180 -18 180 -5 0 6 -20 10 -44 10
-58 0 -107 10 -100 21 3 5 0 9 -5 9 -6 0 -11 -4 -11 -9 0 -4 -24 -6 -52 -4
-83 6 -118 13 -118 23 0 6 71 11 173 12 l172 2 -173 3 -173 3 1 175 2 175 271
2 272 3 -272 2 c-233 3 -273 5 -273 18 0 13 40 15 291 15 264 0 289 -1 275
-16z m1732 -99 l3 -115 -503 -2 -503 -3 503 -2 c484 -3 502 -4 502 -22 0 -18
-15 -19 -412 -19 -228 -1 -414 -5 -417 -10 -10 -15 -43 -24 -111 -32 -64 -7
-64 -7 33 -9 93 -1 97 -2 98 -23 l2 -23 4 23 4 22 269 0 c259 0 304 -5 263
-29 -10 -6 -13 -11 -7 -11 7 0 14 -6 17 -12 8 -21 -242 -12 -265 9 -17 15 -18
15 -18 0 0 -14 -12 -17 -75 -17 -43 0 -75 4 -75 10 0 6 8 10 17 10 14 0 13 3
-6 16 -18 13 -28 14 -47 6 -15 -7 -22 -17 -18 -26 5 -14 -19 -15 -189 -13
-108 1 -199 6 -204 10 -7 7 -9 167 -4 334 l1 43 568 0 568 0 2 -115z m2198
-100 c-23 -17 -36 -19 -36 -6 0 11 18 19 40 20 11 0 10 -3 -4 -14z m-1941 -45
c0 -12 -21 -15 -122 -18 -118 -2 -123 -1 -123 18 0 20 5 21 123 18 100 -3 122
-6 122 -18z m-643 -42 c4 -10 10 -10 32 0 15 6 48 12 74 12 43 -1 46 -2 28
-15 -16 -12 -67 -15 -283 -15 -155 0 -263 4 -263 9 0 16 29 19 222 20 140 1
187 -2 190 -11z m218 0 c0 -9 3 -9 12 0 15 15 60 16 75 1 8 -8 17 -8 31 0 29
15 52 14 52 -4 0 -12 -16 -15 -84 -15 -46 0 -91 3 -100 6 -20 8 -21 24 -1 24
8 0 15 -5 15 -12z m307 1 c8 -8 17 -8 31 0 32 17 92 14 92 -4 0 -13 -21 -15
-125 -15 -104 0 -125 2 -125 15 0 12 13 15 58 15 32 0 63 -5 69 -11z m-307
-45 c0 -8 5 -12 10 -9 6 4 8 11 5 16 -4 5 27 9 74 9 l81 0 0 -30 0 -31 -105 2
c-58 1 -105 6 -105 10 0 5 8 9 18 9 16 1 16 1 0 14 -23 17 -23 26 2 26 11 0
20 -7 20 -16z m230 -14 c0 -25 -4 -30 -25 -30 -21 0 -25 5 -25 30 0 25 4 30
25 30 21 0 25 -5 25 -30z m360 22 c0 -4 -5 -13 -12 -20 -9 -9 -9 -12 0 -12 7
0 12 -4 12 -10 0 -6 -64 -10 -173 -10 l-174 0 0 30 0 30 174 0 c95 0 173 -4
173 -8z m-945 -72 c-4 -11 -2 -20 4 -20 6 0 11 7 11 15 0 11 12 15 48 14 91
-1 196 -15 200 -27 5 -16 22 -15 58 2 16 8 68 17 117 21 l87 7 0 -51 0 -51
-567 -2 -568 -3 568 -2 c557 -3 567 -4 567 -23 0 -19 -10 -20 -570 -20 l-570
0 -1 22 c-1 13 -2 47 -3 76 l-2 52 206 -1 c113 0 199 -3 192 -6 -16 -6 3 -33
23 -33 21 0 72 30 55 32 -8 1 19 4 60 8 41 4 79 7 83 8 5 1 5 -7 2 -18z m-893
3 c-10 -4 -10 -8 -1 -20 10 -12 10 -16 -2 -24 -22 -14 -75 -11 -88 5 -17 20
23 46 69 45 19 0 29 -3 22 -6z m199 -30 c0 -33 1 -35 9 -15 5 12 7 29 4 37 -5
11 1 15 20 15 26 0 26 -1 26 -75 l0 -75 -185 0 c-177 1 -185 2 -185 21 0 18 9
19 183 21 l182 1 -150 8 c-82 4 -163 8 -180 9 -16 1 -40 -1 -52 -5 -14 -5 -23
-3 -23 4 0 5 6 8 14 5 8 -3 17 -1 21 5 7 13 99 15 123 3 10 -5 32 -3 51 3 25
9 29 13 17 18 -20 8 -21 27 -1 27 8 0 15 -5 15 -11 0 -5 5 -7 10 -4 6 3 10 11
10 16 0 6 -4 7 -10 4 -11 -7 -14 8 -3 18 3 4 28 7 55 7 l48 0 1 -37z m2206
-39 c-3 -3 -12 -4 -19 -1 -8 3 -5 6 6 6 11 1 17 -2 13 -5z m-2561 -99 c-12
-13 -67 -15 -370 -15 -310 0 -356 2 -356 15 0 13 48 15 371 15 329 0 369 -2
355 -15z m414 -25 l0 -40 -570 0 c-554 0 -570 1 -570 19 0 18 13 19 355 20
237 0 356 -3 361 -10 3 -6 14 3 25 20 l19 31 190 0 190 0 0 -40z"/>
<path d="M3098 5843 c18 -2 45 -2 60 0 15 2 0 4 -33 4 -33 0 -45 -2 -27 -4z"/>
<path d="M3192 5844 c7 -7 410 -5 417 1 2 3 -92 5 -209 5 -117 0 -211 -3 -208
-6z"/>
<path d="M2778 5793 c156 -2 408 -2 560 0 152 1 25 2 -283 2 -308 0 -433 -1
-277 -2z"/>
<path d="M2950 5748 c0 -5 93 -7 208 -7 114 1 198 3 187 5 -41 8 -395 9 -395
2z"/>
<path d="M2885 5579 c-18 -8 -17 -9 4 -5 14 3 40 -2 58 -11 27 -12 39 -13 59
-4 35 16 110 14 144 -4 17 -9 30 -11 30 -6 0 29 -123 45 -177 22 -24 -10 -34
-9 -59 4 -33 17 -32 17 -59 4z"/>
<path d="M2512 5548 c-20 -20 -14 -36 13 -30 16 3 25 11 25 23 0 21 -20 25
-38 7z"/>
<path d="M2662 5548 c-19 -19 -14 -28 13 -28 18 0 25 5 25 20 0 22 -20 26 -38
8z"/>
<path d="M2883 5554 c3 -4 2 -15 -4 -25 -9 -17 -6 -19 37 -19 37 0 45 -3 40
-15 -7 -19 1 -19 20 0 35 35 151 44 138 10 -4 -10 -26 -15 -72 -18 -63 -3 -62
-3 19 -5 71 -2 88 1 93 14 3 9 11 12 18 8 7 -4 6 0 -2 9 -20 21 -87 35 -128
26 -18 -4 -42 -5 -52 -2 -10 3 -21 0 -24 -6 -11 -18 -26 -13 -26 9 0 16 -7 20
-32 20 -17 0 -28 -3 -25 -6z"/>
<path d="M3206 5536 l-16 -26 47 0 c29 0 43 4 35 9 -7 4 -12 14 -10 22 6 26
-38 22 -56 -5z"/>
<path d="M2810 5525 c-10 -12 -9 -16 4 -21 18 -7 49 13 40 27 -8 14 -30 11
-44 -6z"/>
<path d="M3305 5530 c-16 -7 -17 -9 -3 -9 9 -1 20 4 23 9 7 11 7 11 -20 0z"/>
<path d="M3390 5525 c14 -8 30 -14 35 -14 6 0 -1 6 -15 14 -14 8 -29 14 -35
14 -5 0 1 -6 15 -14z"/>
<path d="M3105 5450 c3 -5 8 -10 11 -10 2 0 4 5 4 10 0 6 -5 10 -11 10 -5 0
-7 -4 -4 -10z"/>
<path d="M4213 5855 c-17 -7 -21 -15 -17 -32 l6 -23 -278 -2 c-229 -2 -245 -3
-91 -5 103 -2 187 -5 187 -8 0 -2 -4 -15 -10 -29 -8 -21 -7 -26 6 -26 24 0 54
19 54 34 0 19 90 27 97 9 6 -16 45 -17 61 -1 7 7 36 15 65 19 l52 6 -67 2
c-52 1 -68 4 -68 16 0 7 7 18 16 23 25 14 13 29 -13 17z m-8 -75 c-3 -5 -12
-10 -18 -10 -7 0 -6 4 3 10 19 12 23 12 15 0z"/>
<path d="M3783 5843 c76 -2 198 -2 270 0 73 1 11 3 -138 3 -148 0 -208 -2
-132 -3z"/>
<path d="M4273 5843 c15 -2 37 -2 50 0 12 2 0 4 -28 4 -27 0 -38 -2 -22 -4z"/>
<path d="M4350 5843 c0 -5 71 -7 157 -5 254 4 274 8 51 10 -115 1 -208 -1
-208 -5z"/>
<path d="M4453 5793 c59 -2 154 -2 210 0 56 1 8 3 -108 3 -115 0 -161 -2 -102
-3z"/>
<path d="M3863 5705 c-13 -9 -20 -22 -17 -30 8 -19 24 -19 52 1 18 13 21 19
11 30 -14 18 -19 18 -46 -1z"/>
<path d="M3815 5599 c-28 -4 -14 -6 45 -7 84 0 97 4 30 10 -19 2 -53 0 -75 -3z"/>
<path d="M3993 5520 c-1 -11 2 -18 8 -15 11 7 12 35 1 35 -4 0 -8 -9 -9 -20z"/>
<path d="M4385 5520 c3 -5 8 -10 11 -10 2 0 4 5 4 10 0 6 -5 10 -11 10 -5 0
-7 -4 -4 -10z"/>
<path d="M4024 5418 c-3 -4 18 -8 45 -8 28 0 51 3 51 8 0 9 -90 10 -96 0z"/>
<path d="M4504 5419 c-3 -5 18 -9 47 -9 29 0 50 2 48 4 -10 9 -90 13 -95 5z"/>
<path d="M3295 5281 c39 -3 127 -3 195 0 110 5 102 5 -70 5 -110 1 -164 -2
-125 -5z"/>
<path d="M8757 5949 c14 -14 106 -18 113 -4 3 6 -21 11 -60 13 -49 2 -62 0
-53 -9z"/>
<path d="M5003 5892 c-13 -2 -23 -7 -23 -11 0 -13 -82 -34 -130 -34 -31 1 -36
-1 -15 -4 16 -3 33 -9 36 -15 7 -12 56 1 126 33 40 18 73 19 480 21 241 1 416
3 388 5 -70 4 -835 9 -862 5z"/>
<path d="M2145 5839 c44 -5 131 -5 195 0 112 8 110 8 -80 8 -161 0 -181 -1
-115 -8z"/>
<path d="M5233 5843 c126 -2 328 -2 450 0 122 1 20 2 -228 2 -247 0 -347 -1
-222 -2z"/>
<path d="M7855 5810 c-3 -5 1 -10 10 -10 9 0 13 5 10 10 -3 6 -8 10 -10 10 -2
0 -7 -4 -10 -10z"/>
<path d="M7775 5797 c-20 -15 -13 -37 11 -37 27 0 54 20 48 35 -8 19 -34 19
-59 2z m35 -12 c-7 -8 -17 -15 -22 -15 -6 0 -5 7 2 15 7 8 17 15 22 15 6 0 5
-7 -2 -15z"/>
<path d="M2122 5793 c59 -2 158 -2 220 0 62 1 14 3 -107 3 -121 0 -172 -2
-113 -3z"/>
<path d="M4963 5793 c128 -3 159 -6 163 -18 7 -18 36 -19 52 -2 10 9 104 13
370 17 314 5 290 6 -193 6 -302 0 -479 -2 -392 -3z"/>
<path d="M6308 5778 c-8 -7 -18 -21 -21 -30 -8 -23 25 -24 48 -2 27 28 4 56
-27 32z"/>
<path d="M7629 5778 c-8 -7 -21 -21 -28 -30 -12 -16 -11 -18 12 -18 14 0 33 7
42 16 27 28 4 56 -26 32z"/>
<path d="M5684 5770 c-39 -15 -35 -28 4 -14 37 13 76 10 100 -9 7 -5 15 -8 18
-5 7 8 -61 38 -83 37 -10 0 -28 -4 -39 -9z"/>
<path d="M6380 5760 c0 -5 5 -10 10 -10 6 0 10 5 10 10 0 6 -4 10 -10 10 -5 0
-10 -4 -10 -10z"/>
<path d="M6819 5740 l-24 -20 37 15 c46 19 66 19 101 1 15 -8 27 -11 27 -7 0
13 -49 31 -84 31 -19 0 -44 -9 -57 -20z"/>
<path d="M5630 5702 c-39 -32 -6 -57 35 -27 17 14 18 17 4 31 -14 13 -18 13
-39 -4z"/>
<path d="M5786 5701 c-20 -22 -14 -41 13 -41 27 0 54 33 39 48 -17 17 -32 15
-52 -7z m44 1 c0 -4 -9 -13 -20 -20 -23 -14 -26 -8 -7 13 13 16 27 19 27 7z"/>
<path d="M7460 5702 c-39 -31 -5 -58 36 -28 17 14 18 16 3 31 -14 15 -18 14
-39 -3z"/>
<path d="M6285 5690 c3 -5 8 -10 11 -10 2 0 4 5 4 10 0 6 -5 10 -11 10 -5 0
-7 -4 -4 -10z"/>
<path d="M7213 5663 c9 -2 23 -2 30 0 6 3 -1 5 -18 5 -16 0 -22 -2 -12 -5z"/>
<path d="M6674 5573 l1 -58 -230 -5 -230 -6 270 0 c149 -1 255 1 238 3 l-33 4
0 60 c0 32 -4 59 -8 59 -5 0 -8 -26 -8 -57z"/>
<path d="M7145 5619 c-4 -6 -4 -13 -1 -16 8 -8 36 5 36 17 0 13 -27 13 -35 -1z"/>
<path d="M7240 5601 c-34 -28 -34 -28 -12 -35 13 -4 41 -5 63 -1 31 5 37 10
29 20 -6 7 -7 21 -3 30 4 12 -6 7 -27 -13 -18 -18 -38 -32 -44 -32 -6 1 5 14
24 30 20 18 28 30 19 30 -8 0 -30 -13 -49 -29z"/>
<path d="M7560 5604 c0 -20 -4 -25 -18 -22 -13 4 -18 -1 -19 -16 -1 -12 1 -15
4 -8 5 14 33 17 33 3 0 -5 -6 -12 -12 -14 -10 -4 -10 -6 0 -6 6 -1 12 -6 12
-12 0 -5 -4 -7 -10 -4 -5 3 -10 2 -10 -4 0 -6 -34 -12 -77 -14 l-78 -4 88 1
c60 1 87 -3 87 -11 0 -6 -6 -14 -12 -16 -7 -3 -3 -6 9 -6 16 -1 21 3 17 14 -5
11 1 15 25 15 19 0 30 -5 29 -12 -2 -7 7 -14 19 -16 17 -3 21 0 17 12 -5 13 3
16 45 16 35 0 50 -4 49 -12 -2 -7 7 -14 20 -16 14 -2 22 2 22 11 0 12 31 15
185 16 142 1 184 -2 183 -11 -2 -7 7 -14 19 -16 17 -3 21 0 17 12 -7 18 -7 18
91 16 38 -1 67 1 63 5 -3 3 -181 7 -394 8 l-389 2 1 58 c1 31 -3 57 -7 57 -5
0 -9 -12 -9 -26z"/>
<path d="M8471 5618 c4 -37 -1 -41 -24 -20 -29 27 -37 27 -72 0 -23 -18 -25
-22 -11 -30 18 -10 116 1 116 13 0 5 30 10 68 11 l67 2 -57 3 c-42 3 -58 8
-58 18 0 8 -7 15 -15 15 -9 0 -15 -6 -14 -12z"/>
<path d="M2350 5595 c-10 -12 -9 -16 4 -21 18 -7 49 13 40 27 -8 14 -30 11
-44 -6z"/>
<path d="M6148 5593 c7 -3 16 -2 19 1 4 3 -2 6 -13 5 -11 0 -14 -3 -6 -6z"/>
<path d="M8031 5590 c0 -8 4 -24 8 -34 7 -19 8 -19 15 -1 4 12 1 24 -9 34 -13
13 -15 13 -14 1z"/>
<path d="M8300 5585 c0 -8 4 -15 10 -15 5 0 7 -8 4 -17 -5 -15 -4 -16 5 -3 15
21 14 37 -4 44 -9 3 -15 0 -15 -9z"/>
<path d="M7054 5582 c-6 -4 -14 -17 -18 -29 -7 -20 -4 -23 23 -23 31 0 58 30
46 50 -7 12 -35 13 -51 2z"/>
<path d="M9011 5569 c-11 -12 -19 -24 -17 -26 2 -3 31 1 65 7 45 8 66 8 82 0
11 -7 23 -9 26 -7 8 9 -52 36 -95 43 -33 5 -43 2 -61 -17z"/>
<path d="M5438 5573 c7 -3 16 -2 19 1 4 3 -2 6 -13 5 -11 0 -14 -3 -6 -6z"/>
<path d="M5505 5564 c16 -8 45 -13 65 -11 34 4 34 4 -7 5 -23 1 -45 7 -48 12
-3 6 -14 10 -23 10 -11 0 -6 -6 13 -16z"/>
<path d="M7152 5559 c-19 -30 -8 -34 12 -4 9 14 13 25 9 25 -5 0 -14 -9 -21
-21z"/>
<path d="M7655 5570 c4 -6 62 -10 140 -10 78 0 136 4 140 10 4 6 -45 10 -140
10 -95 0 -144 -4 -140 -10z"/>
<path d="M8200 5560 c6 -11 15 -20 20 -20 6 0 5 9 -2 20 -7 11 -16 20 -21 20
-4 0 -3 -9 3 -20z"/>
<path d="M5453 5553 c9 -2 23 -2 30 0 6 3 -1 5 -18 5 -16 0 -22 -2 -12 -5z"/>
<path d="M5760 5540 c0 -5 5 -10 10 -10 6 0 10 5 10 10 0 6 -4 10 -10 10 -5 0
-10 -4 -10 -10z"/>
<path d="M5370 5525 c-10 -12 -9 -16 4 -21 18 -7 49 13 40 27 -8 14 -30 11
-44 -6z"/>
<path d="M5520 5525 c-10 -12 -9 -16 4 -21 18 -7 49 13 40 27 -8 14 -30 11
-44 -6z"/>
<path d="M2340 5520 c0 -5 5 -10 10 -10 6 0 10 5 10 10 0 6 -4 10 -10 10 -5 0
-10 -4 -10 -10z"/>
<path d="M6190 5393 c0 -69 3 -123 7 -119 10 9 10 246 1 246 -5 0 -8 -57 -8
-127z"/>
<path d="M6760 5511 c0 -7 20 -11 50 -11 47 0 50 -1 38 -20 -10 -15 -10 -22 0
-32 10 -10 19 -9 47 6 29 16 32 21 22 37 -9 15 -24 19 -69 19 -31 0 -63 3 -72
6 -9 3 -16 1 -16 -5z"/>
<path d="M6920 5508 c0 -5 93 -8 207 -8 113 0 204 2 201 5 -8 8 -408 11 -408
3z"/>
<path d="M7344 5504 c3 -9 6 -20 6 -25 0 -21 15 -7 16 16 1 16 -3 25 -13 25
-10 0 -13 -6 -9 -16z"/>
<path d="M8410 5511 l-35 -7 43 -7 c44 -8 62 -4 62 14 0 10 -16 10 -70 0z"/>
<path d="M9151 5491 c-16 -12 -22 -24 -18 -35 9 -22 50 -20 72 4 26 29 9 38
-20 10 -14 -13 -28 -20 -32 -16 -4 4 6 18 22 31 35 29 13 34 -24 6z"/>
<path d="M8577 5493 c-13 -12 -7 -23 13 -23 11 0 20 7 20 15 0 15 -21 21 -33
8z"/>
<path d="M8950 5485 c-7 -8 -10 -22 -6 -30 7 -19 40 -19 56 0 8 10 30 15 61
15 29 0 49 4 49 11 0 8 -14 9 -44 5 -27 -4 -47 -3 -51 4 -9 15 -51 12 -65 -5z"/>
<path d="M5423 5483 c20 -2 54 -2 75 0 20 2 3 4 -38 4 -41 0 -58 -2 -37 -4z"/>
<path d="M7028 5473 c7 -3 16 -2 19 1 4 3 -2 6 -13 5 -11 0 -14 -3 -6 -6z"/>
<path d="M7908 5473 c7 -3 16 -2 19 1 4 3 -2 6 -13 5 -11 0 -14 -3 -6 -6z"/>
<path d="M8365 5470 c4 -6 11 -8 16 -5 14 9 11 15 -7 15 -8 0 -12 -5 -9 -10z"/>
<path d="M8448 5473 c6 -2 18 -2 25 0 6 3 1 5 -13 5 -14 0 -19 -2 -12 -5z"/>
<path d="M1932 5458 c-20 -20 -14 -38 13 -38 24 0 51 31 38 44 -10 10 -38 7
-51 -6z"/>
<path d="M2252 5458 c-19 -19 -14 -38 11 -38 22 0 51 32 40 44 -10 10 -38 7
-51 -6z"/>
<path d="M5765 5451 c-3 -5 -1 -12 5 -16 5 -3 10 1 10 9 0 18 -6 21 -15 7z"/>
<path d="M2090 5432 c-20 -16 -21 -19 -6 -31 13 -11 20 -11 42 3 20 14 23 20
13 32 -15 18 -22 18 -49 -4z"/>
<path d="M2305 5420 c-3 -5 1 -10 10 -10 9 0 13 5 10 10 -3 6 -8 10 -10 10 -2
0 -7 -4 -10 -10z"/>
<path d="M6830 5420 c0 -5 7 -10 15 -10 8 0 15 5 15 10 0 6 -7 10 -15 10 -8 0
-15 -4 -15 -10z"/>
<path d="M7020 5420 c0 -5 7 -10 15 -10 8 0 15 5 15 10 0 6 -7 10 -15 10 -8 0
-15 -4 -15 -10z"/>
<path d="M7215 5420 c-3 -5 1 -10 9 -10 9 0 16 5 16 10 0 6 -4 10 -9 10 -6 0
-13 -4 -16 -10z"/>
<path d="M8360 5420 c0 -5 7 -10 15 -10 8 0 15 5 15 10 0 6 -7 10 -15 10 -8 0
-15 -4 -15 -10z"/>
<path d="M8930 5420 c0 -5 7 -10 16 -10 8 0 12 5 9 10 -3 6 -10 10 -16 10 -5
0 -9 -4 -9 -10z"/>
<path d="M1938 5389 c-26 -15 -22 -39 5 -39 13 0 27 4 33 9 5 6 34 12 64 14
l55 3 -57 2 c-32 1 -58 7 -58 12 0 13 -20 12 -42 -1z"/>
<path d="M1888 5373 c7 -3 16 -2 19 1 4 3 -2 6 -13 5 -11 0 -14 -3 -6 -6z"/>
<path d="M2347 5373 c18 -2 50 -2 70 0 21 2 7 4 -32 4 -38 0 -55 -2 -38 -4z"/>
<path d="M6772 5364 c8 -7 159 -7 166 1 3 3 -34 5 -83 5 -49 0 -86 -3 -83 -6z"/>
<path d="M5953 5332 c-16 -10 -10 -47 8 -47 8 0 14 12 16 28 2 28 -3 32 -24
19z"/>
<path d="M6224 5334 c-11 -5 -7 -54 5 -54 14 0 26 16 26 34 0 20 -12 28 -31
20z"/>
<path d="M6490 5314 c-12 -31 -8 -38 18 -30 11 4 18 14 17 28 -2 32 -23 34
-35 2z"/>
<path d="M6087 5313 c-4 -3 -7 -15 -7 -25 0 -28 35 -19 36 10 1 21 -15 30 -29
15z"/>
<path d="M6357 5307 c-7 -19 8 -41 22 -33 16 10 14 46 -3 46 -8 0 -16 -6 -19
-13z"/>
<path d="M4231 5292 c-11 -21 2 -42 14 -22 3 5 30 11 58 12 l52 2 -50 3 c-27
3 -53 9 -56 15 -4 7 -11 3 -18 -10z"/>
<path d="M4360 5295 c0 -8 5 -15 10 -15 6 0 10 7 10 15 0 8 -4 15 -10 15 -5 0
-10 -7 -10 -15z"/>
<path d="M5360 5295 c0 -8 5 -15 10 -15 6 0 10 7 10 15 0 8 -4 15 -10 15 -5 0
-10 -7 -10 -15z"/>
<path d="M5390 5295 c0 -8 0 -17 0 -20 0 -16 15 -2 16 15 1 11 -3 20 -7 20 -5
0 -9 -7 -9 -15z"/>
<path d="M5547 5288 c-7 -25 0 -38 11 -21 5 8 61 12 176 12 93 1 172 3 174 6
3 3 -74 5 -172 5 -116 0 -175 3 -171 10 3 6 2 10 -3 10 -5 0 -12 -10 -15 -22z"/>
<path d="M6010 5300 c0 -5 5 -10 11 -10 5 0 7 5 4 10 -3 6 -8 10 -11 10 -2 0
-4 -4 -4 -10z"/>
<path d="M6542 5290 c0 -14 2 -19 5 -12 2 6 2 18 0 25 -3 6 -5 1 -5 -13z"/>
<path d="M6619 5300 c-21 -14 -2 -24 23 -13 17 7 19 11 6 15 -8 4 -21 2 -29
-2z"/>
<path d="M1863 5283 c8 -7 577 -6 585 2 3 3 -129 5 -293 5 -164 0 -295 -3
-292 -7z"/>
<path d="M3808 5283 c12 -2 30 -2 40 0 9 3 -1 5 -23 4 -22 0 -30 -2 -17 -4z"/>
<path d="M3985 5281 c28 -3 86 -3 130 0 68 5 61 6 -50 6 -78 0 -110 -2 -80 -6z"/>
<path d="M5443 5283 c15 -2 37 -2 50 0 12 2 0 4 -28 4 -27 0 -38 -2 -22 -4z"/>
<path d="M6015 5270 c-3 -5 -1 -10 4 -10 6 0 11 5 11 10 0 6 -2 10 -4 10 -3 0
-8 -4 -11 -10z"/>
<path d="M5740 5257 c0 -9 -3 -16 -7 -16 -18 3 -33 -2 -33 -10 0 -5 9 -7 20
-4 16 4 20 0 20 -17 0 -17 -4 -21 -20 -17 -11 3 -20 1 -20 -4 0 -8 15 -13 33
-10 4 0 7 -7 7 -16 1 -15 2 -16 9 -3 10 17 8 96 -2 106 -4 4 -7 0 -7 -9z"/>
<path d="M4859 5250 c-3 -8 -5 -32 -4 -52 2 -31 -1 -37 -18 -40 -31 -5 -34
-28 -3 -28 18 0 27 6 31 23 8 30 2 117 -6 97z"/>
<path d="M7558 5255 c-3 -4 -159 -6 -347 -5 l-341 0 0 -25 c0 -23 2 -24 20
-15 11 6 20 15 20 20 0 16 607 13 613 -2 4 -10 6 -10 6 0 1 14 31 17 31 2 0
-5 -6 -10 -12 -10 -9 0 -8 -3 2 -10 8 -5 11 -12 7 -16 -3 -4 -13 -1 -22 6 -9
8 -15 8 -15 2 0 -6 9 -14 20 -17 11 -3 20 -11 20 -16 0 -5 4 -9 8 -9 5 0 8 20
8 44 -1 44 -7 61 -18 51z"/>
<path d="M7625 5250 l-40 -7 43 -2 c23 0 42 4 42 9 0 6 -1 9 -2 9 -2 -1 -21
-5 -43 -9z"/>
<path d="M7835 5243 c30 -3 53 -10 58 -19 4 -8 16 -14 25 -14 14 1 13 4 -7 20
-17 15 -36 20 -75 18 l-51 -2 50 -3z"/>
<path d="M7932 5245 c3 -3 55 -6 116 -6 115 -1 129 -6 123 -49 -1 -11 3 -9 14
5 15 18 14 21 -5 37 -16 13 -44 17 -137 17 -64 1 -114 -1 -111 -4z"/>
<path d="M8198 5243 c6 -2 18 -2 25 0 6 3 1 5 -13 5 -14 0 -19 -2 -12 -5z"/>
<path d="M4315 5230 c3 -5 12 -10 20 -10 8 0 17 5 20 10 4 6 -5 10 -20 10 -15
0 -24 -4 -20 -10z"/>
<path d="M5275 5230 c3 -5 13 -10 21 -10 8 0 14 5 14 10 0 6 -9 10 -21 10 -11
0 -17 -4 -14 -10z"/>
<path d="M6340 5231 c0 -6 5 -13 11 -16 6 -4 8 -13 5 -21 -3 -8 -1 -14 4 -14
11 0 13 21 4 44 -7 17 -24 22 -24 7z"/>
<path d="M5808 5213 c6 -2 18 -2 25 0 6 3 1 5 -13 5 -14 0 -19 -2 -12 -5z"/>
<path d="M1920 5203 c0 -6 10 -13 23 -17 36 -10 147 -7 147 4 0 6 -15 10 -32
10 -18 0 -57 3 -85 6 -34 4 -53 3 -53 -3z"/>
<path d="M6548 5203 c39 -2 105 -2 145 0 39 1 7 3 -73 3 -80 0 -112 -2 -72 -3z"/>
<path d="M7900 5189 c0 -5 5 -7 10 -4 6 3 10 8 10 11 0 2 -4 4 -10 4 -5 0 -10
-5 -10 -11z"/>
<path d="M8085 5190 c-3 -5 -1 -10 4 -10 6 0 11 5 11 10 0 6 -2 10 -4 10 -3 0
-8 -4 -11 -10z"/>
<path d="M3728 5183 c12 -2 30 -2 40 0 9 3 -1 5 -23 4 -22 0 -30 -2 -17 -4z"/>
<path d="M6872 5170 c0 -14 2 -19 5 -12 2 6 2 18 0 25 -3 6 -5 1 -5 -13z"/>
<path d="M7626 5175 c-3 -10 1 -15 13 -15 10 0 21 7 25 15 3 10 -1 15 -13 15
-10 0 -21 -7 -25 -15z"/>
<path d="M7756 5175 c-3 -8 -1 -15 5 -15 6 0 9 -7 5 -15 -4 -11 2 -15 23 -15
16 0 31 7 35 15 4 10 -1 15 -15 15 -15 0 -19 5 -15 15 3 10 -1 15 -13 15 -10
0 -21 -7 -25 -15z"/>
<path d="M8030 5174 c0 -9 7 -14 17 -12 25 5 28 28 4 28 -12 0 -21 -6 -21 -16z"/>
<path d="M3730 5150 c-8 -5 -12 -11 -9 -14 5 -6 130 12 138 20 9 8 -114 3
-129 -6z"/>
<path d="M4172 5148 c-19 -19 -14 -25 17 -20 36 5 51 32 18 32 -13 0 -28 -5
-35 -12z"/>
<path d="M4497 5153 c-15 -14 -6 -24 20 -21 34 4 43 28 11 28 -14 0 -28 -3
-31 -7z"/>
<path d="M5462 5148 c-30 -30 1 -56 37 -31 17 12 20 18 10 29 -14 17 -31 18
-47 2z"/>
<path d="M4333 5135 c-8 -23 17 -37 40 -22 26 17 22 31 -8 35 -16 2 -27 -2
-32 -13z"/>
<path d="M4651 5136 c-9 -10 -8 -16 4 -26 12 -10 20 -9 40 4 14 9 23 21 20 26
-9 15 -51 12 -64 -4z"/>
<path d="M6767 5133 c18 -2 50 -2 70 0 21 2 7 4 -32 4 -38 0 -55 -2 -38 -4z"/>
<path d="M3560 4947 c0 -42 4 -77 8 -77 9 0 8 137 -1 147 -4 3 -7 -28 -7 -70z"/>
<path d="M4840 4947 c0 -42 4 -77 8 -77 9 0 8 137 -1 147 -4 3 -7 -28 -7 -70z"/>
<path d="M3974 4966 c0 -15 8 -27 19 -30 11 -3 16 0 13 7 -3 7 -9 20 -12 30
-9 25 -22 21 -20 -7z"/>
<path d="M4580 4980 c0 -6 33 -10 80 -10 47 0 80 4 80 10 0 6 -33 10 -80 10
-47 0 -80 -4 -80 -10z"/>
<path d="M5105 4980 c-4 -6 25 -10 80 -10 55 0 84 4 80 10 -3 6 -39 10 -80 10
-41 0 -77 -4 -80 -10z"/>
<path d="M5560 4980 c0 -6 58 -10 155 -10 97 0 155 4 155 10 0 6 -58 10 -155
10 -97 0 -155 -4 -155 -10z"/>
<path d="M2350 4965 c0 -8 5 -15 11 -15 6 0 9 -9 6 -20 -3 -11 -2 -20 3 -20
14 0 18 36 5 53 -15 21 -25 22 -25 2z"/>
<path d="M2810 4965 c0 -8 5 -15 11 -15 6 0 8 -9 4 -20 -4 -12 -2 -20 5 -20 6
0 9 4 5 9 -3 5 -1 12 5 16 6 4 5 13 -3 25 -14 24 -27 26 -27 5z"/>
<path d="M3410 4966 c0 -10 -14 -16 -42 -19 -30 -3 -27 -4 10 -2 47 2 53 0 49
-17 -3 -10 -2 -18 3 -18 4 0 10 10 14 23 8 32 7 39 -4 32 -5 -3 -10 -1 -10 4
0 6 -4 11 -10 11 -5 0 -10 -7 -10 -14z"/>
<path d="M3784 4968 c-5 -9 -25 -19 -44 -21 -20 -2 -14 -3 13 -2 43 2 48 0 44
-16 -3 -11 -1 -19 4 -19 5 0 9 1 9 3 0 1 4 17 10 35 7 28 7 32 -4 22 -11 -8
-15 -8 -18 2 -3 9 -7 8 -14 -4z"/>
<path d="M4090 4965 c0 -8 5 -15 11 -15 6 0 8 -9 4 -20 -4 -13 -2 -20 6 -20 7
0 9 3 6 7 -4 3 -3 11 3 18 6 7 3 17 -10 28 -17 14 -20 14 -20 2z"/>
<path d="M4390 4965 c0 -8 5 -15 11 -15 6 0 9 -9 6 -20 -3 -11 -2 -20 3 -20
15 0 19 43 5 56 -18 18 -25 18 -25 -1z"/>
<path d="M4910 4966 c0 -8 -8 -17 -17 -19 -10 -2 -5 -3 11 -1 24 3 28 1 23
-16 -3 -11 -2 -20 3 -20 4 0 10 10 14 23 8 32 7 39 -4 32 -5 -3 -10 -1 -10 4
0 6 -4 11 -10 11 -5 0 -10 -6 -10 -14z"/>
<path d="M5370 4965 c0 -8 5 -15 11 -15 6 0 8 -9 4 -20 -4 -13 -2 -20 6 -20 7
0 9 3 6 7 -4 3 -3 11 3 18 6 7 3 17 -10 28 -17 14 -20 14 -20 2z"/>
<path d="M5970 4966 c0 -10 -13 -16 -37 -19 -24 -3 -20 -3 10 -2 43 2 48 0 44
-16 -3 -11 -2 -19 3 -19 4 0 10 10 14 23 8 32 7 39 -4 32 -5 -3 -10 -1 -10 4
0 6 -4 11 -10 11 -5 0 -10 -6 -10 -14z"/>
<path d="M3672 4932 c1 -19 6 -28 18 -28 15 0 15 3 2 28 -7 15 -15 28 -17 28
-2 0 -3 -13 -3 -28z"/>
<path d="M2318 4943 c7 -3 16 -2 19 1 4 3 -2 6 -13 5 -11 0 -14 -3 -6 -6z"/>
<path d="M2427 4943 c18 -2 50 -2 70 0 21 2 7 4 -32 4 -38 0 -55 -2 -38 -4z"/>
<path d="M2543 4944 c3 -3 40 -6 82 -6 42 0 79 3 82 6 4 3 -33 6 -82 6 -49 0
-86 -3 -82 -6z"/>
<path d="M2738 4943 c12 -2 32 -2 45 0 12 2 2 4 -23 4 -25 0 -35 -2 -22 -4z"/>
<path d="M2887 4943 c18 -2 50 -2 70 0 21 2 7 4 -32 4 -38 0 -55 -2 -38 -4z"/>
<path d="M3000 4943 c0 -5 70 -8 155 -8 85 0 155 3 155 8 0 4 -70 7 -155 7
-85 0 -155 -3 -155 -7z"/>
<path d="M3483 4943 c15 -2 37 -2 50 0 12 2 0 4 -28 4 -27 0 -38 -2 -22 -4z"/>
<path d="M3608 4943 c12 -2 30 -2 40 0 9 3 -1 5 -23 4 -22 0 -30 -2 -17 -4z"/>
<path d="M3857 4943 c18 -2 50 -2 70 0 21 2 7 4 -32 4 -38 0 -55 -2 -38 -4z"/>
<path d="M4033 4943 c9 -2 25 -2 35 0 9 3 1 5 -18 5 -19 0 -27 -2 -17 -5z"/>
<path d="M4168 4943 c17 -2 47 -2 65 0 17 2 3 4 -33 4 -36 0 -50 -2 -32 -4z"/>
<path d="M4277 4927 c3 -14 12 -23 24 -24 18 -2 18 -1 1 22 -22 31 -30 31 -25
2z"/>
<path d="M4318 4943 c12 -2 32 -2 45 0 12 2 2 4 -23 4 -25 0 -35 -2 -22 -4z"/>
<path d="M4478 4943 c23 -2 61 -2 85 0 23 2 4 4 -43 4 -47 0 -66 -2 -42 -4z"/>
<path d="M4638 4943 c18 -2 45 -2 60 0 15 2 0 4 -33 4 -33 0 -45 -2 -27 -4z"/>
<path d="M4778 4943 c12 -2 30 -2 40 0 9 3 -1 5 -23 4 -22 0 -30 -2 -17 -4z"/>
<path d="M4987 4943 c18 -2 50 -2 70 0 21 2 7 4 -32 4 -38 0 -55 -2 -38 -4z"/>
<path d="M5158 4943 c18 -2 45 -2 60 0 15 2 0 4 -33 4 -33 0 -45 -2 -27 -4z"/>
<path d="M5298 4943 c12 -2 32 -2 45 0 12 2 2 4 -23 4 -25 0 -35 -2 -22 -4z"/>
<path d="M5448 4943 c17 -2 47 -2 65 0 17 2 3 4 -33 4 -36 0 -50 -2 -32 -4z"/>
<path d="M5633 4943 c48 -2 125 -2 170 0 45 1 6 3 -88 3 -93 0 -130 -2 -82 -3z"/>
<path d="M6038 4943 c12 -2 32 -2 45 0 12 2 2 4 -23 4 -25 0 -35 -2 -22 -4z"/>
<path d="M2540 4910 c0 -5 5 -10 10 -10 6 0 10 5 10 10 0 6 -4 10 -10 10 -5 0
-10 -4 -10 -10z"/>
<path d="M2690 4910 c0 -5 5 -10 10 -10 6 0 10 5 10 10 0 6 -4 10 -10 10 -5 0
-10 -4 -10 -10z"/>
<path d="M3975 4910 c3 -5 8 -10 11 -10 2 0 4 5 4 10 0 6 -5 10 -11 10 -5 0
-7 -4 -4 -10z"/>
<path d="M4730 4910 c0 -5 5 -10 11 -10 5 0 7 5 4 10 -3 6 -8 10 -11 10 -2 0
-4 -4 -4 -10z"/>
<path d="M5100 4910 c0 -5 5 -10 10 -10 6 0 10 5 10 10 0 6 -4 10 -10 10 -5 0
-10 -4 -10 -10z"/>
<path d="M5255 4910 c3 -5 8 -10 11 -10 2 0 4 5 4 10 0 6 -5 10 -11 10 -5 0
-7 -4 -4 -10z"/>
<path d="M6520 4903 c-41 -2 -77 -8 -80 -13 -3 -6 -34 -13 -67 -16 -59 -6 -93
-18 -82 -28 4 -4 251 27 307 40 13 2 20 9 17 14 -3 6 -9 9 -13 8 -4 -1 -41 -4
-82 -5z"/>
<path d="M7520 4899 c-59 -4 -32 -5 90 -6 167 0 186 3 55 9 -33 2 -98 0 -145
-3z"/>
<path d="M6318 4893 c23 -2 59 -2 80 0 20 2 1 4 -43 4 -44 0 -61 -2 -37 -4z"/>
<path d="M3939 4883 c-1 -5 -2 -17 -3 -28 -1 -16 -9 -21 -44 -23 -54 -4 -52
-26 4 -30 35 -3 76 -22 46 -22 -7 0 -12 -4 -12 -10 0 -11 43 -14 53 -3 4 3 2
12 -5 20 -9 11 11 13 128 11 128 -3 139 -4 136 -21 -3 -14 2 -18 20 -15 15 2
22 9 20 21 -2 12 4 17 23 17 16 0 25 6 25 15 0 9 -10 15 -26 15 -14 0 -23 4
-19 10 11 18 -27 24 -40 7 -9 -13 -36 -16 -142 -19 l-130 -3 7 27 c5 14 6 29
2 32 -8 9 -42 7 -43 -1z"/>
<path d="M4546 4882 c-3 -5 -3 -23 -1 -40 3 -20 0 -32 -7 -32 -9 0 -9 -3 -1
-11 6 -6 9 -18 6 -26 -4 -11 0 -14 18 -11 22 3 24 8 25 66 1 53 -2 62 -17 62
-10 0 -20 -4 -23 -8z"/>
<path d="M5219 4888 c0 -2 -2 -31 -3 -66 -2 -58 -1 -63 18 -60 13 2 20 10 20
21 -1 9 2 17 8 17 5 0 6 6 2 12 -5 7 -7 27 -5 45 2 28 -1 33 -18 33 -12 0 -21
-1 -22 -2z"/>
<path d="M5826 4882 c-2 -4 -3 -20 -2 -35 2 -15 -3 -32 -10 -38 -23 -19 -17
-37 11 -31 14 2 25 11 25 18 0 8 3 14 8 14 4 0 7 18 8 40 0 32 -3 40 -17 40
-10 0 -20 -4 -23 -8z"/>
<path d="M3266 4864 c-9 -23 -8 -24 19 -24 18 0 25 5 25 20 0 24 -35 28 -44 4z"/>
<path d="M5650 4854 c-11 -13 -10 -16 8 -21 12 -3 22 -9 22 -14 0 -5 8 -9 18
-9 22 0 23 37 1 51 -21 13 -35 11 -49 -7z"/>
<path d="M7665 4860 c-128 -23 -175 -29 -189 -24 -9 3 -22 2 -29 -4 -6 -5 -19
-11 -28 -13 -13 -3 -15 -9 -8 -26 10 -26 40 -30 63 -8 8 8 41 21 75 29 51 12
59 12 54 0 -4 -11 6 -14 46 -12 51 2 67 12 34 21 -15 4 -14 5 3 6 31 2 84 22
84 32 0 10 -46 10 -105 -1z"/>
<path d="M7836 4845 c-13 -14 -30 -25 -39 -25 -25 0 -8 -39 21 -47 17 -4 29
-1 37 11 7 9 17 16 24 16 15 0 14 17 -1 23 -10 3 -10 7 -1 19 13 15 8 28 -9
28 -5 0 -19 -11 -32 -25z"/>
<path d="M8002 4858 c-5 -7 -13 -23 -17 -36 -6 -22 -5 -23 44 -19 51 4 84 17
43 17 -15 0 -20 4 -15 16 10 27 -35 46 -55 22z"/>
<path d="M2514 4848 c-11 -18 -12 -48 -2 -54 15 -9 49 7 41 19 -4 7 -6 20 -5
30 4 20 -23 24 -34 5z"/>
<path d="M2664 4848 c-11 -18 -12 -48 -2 -54 4 -3 17 -2 29 1 15 5 17 10 9 20
-8 9 -8 15 0 20 6 3 8 11 5 16 -9 13 -32 11 -41 -3z"/>
<path d="M2966 4851 c-3 -5 -3 -16 0 -25 4 -10 1 -16 -7 -16 -9 0 -10 -3 -2
-11 6 -6 20 -8 31 -5 15 5 20 14 18 34 -3 27 -29 42 -40 23z"/>
<path d="M3116 4851 c-3 -5 -3 -16 0 -25 4 -10 1 -16 -7 -16 -9 0 -10 -3 -2
-11 20 -20 52 -1 50 29 -2 27 -29 42 -41 23z"/>
<path d="M3645 4852 c-12 -8 -14 -86 -3 -98 11 -10 40 17 34 33 -3 7 -1 13 5
13 6 0 7 6 2 13 -4 6 -6 20 -5 30 3 17 -15 23 -33 9z"/>
<path d="M4705 4852 c-5 -4 -10 -26 -11 -50 -1 -38 2 -43 20 -40 13 2 20 10
20 21 -1 9 2 17 8 17 5 0 6 6 1 13 -4 6 -6 20 -5 30 3 17 -15 23 -33 9z"/>
<path d="M5074 4848 c-4 -6 -8 -29 -9 -50 -2 -39 6 -45 39 -32 13 5 14 9 5 20
-9 11 -9 14 0 14 7 0 9 5 4 13 -4 6 -6 20 -5 30 4 19 -23 24 -34 5z"/>
<path d="M5521 4846 c-9 -11 -9 -15 1 -19 10 -4 10 -7 -1 -15 -9 -7 -10 -11
-2 -17 9 -5 9 -10 0 -21 -9 -11 -7 -14 13 -14 31 0 41 10 27 27 -9 10 -8 13 1
13 10 0 10 3 1 14 -8 10 -9 16 -1 21 13 8 3 25 -14 25 -8 0 -19 -6 -25 -14z"/>
<path d="M7232 4835 c-29 -33 -28 -35 13 -35 24 0 37 6 45 20 23 44 -23 55
-58 15z"/>
<path d="M6185 4839 c-17 -8 -17 -9 5 -4 14 2 38 -2 54 -10 36 -19 47 -19 21
-1 -30 20 -58 25 -80 15z"/>
<path d="M3564 4715 c0 -71 1 -99 3 -62 2 37 2 96 0 130 -2 34 -3 4 -3 -68z"/>
<path d="M3261 4811 c-10 -6 -10 -10 -1 -16 15 -10 62 3 55 15 -8 12 -35 13
-54 1z"/>
<path d="M5962 4808 c-19 -19 -14 -28 13 -28 18 0 25 5 25 20 0 22 -20 26 -38
8z"/>
<path d="M6193 4813 c9 -2 23 -2 30 0 6 3 -1 5 -18 5 -16 0 -22 -2 -12 -5z"/>
<path d="M6860 4791 c0 -29 -2 -30 -52 -34 l-53 -3 61 -2 60 -2 0 35 c-1 19
-4 35 -8 35 -5 0 -8 -13 -8 -29z"/>
<path d="M7305 4810 c-3 -5 -1 -10 4 -10 6 0 11 5 11 10 0 6 -2 10 -4 10 -3 0
-8 -4 -11 -10z"/>
<path d="M8140 4778 c0 -23 3 -38 7 -34 11 10 11 76 1 76 -4 0 -8 -19 -8 -42z"/>
<path d="M4917 4804 c-4 -4 -4 -10 -1 -15 6 -10 34 0 34 12 0 10 -24 12 -33 3z"/>
<path d="M5393 4793 c9 -2 23 -2 30 0 6 3 -1 5 -18 5 -16 0 -22 -2 -12 -5z"/>
<path d="M6110 4785 c-10 -12 -9 -16 4 -21 18 -7 49 13 40 27 -8 14 -30 11
-44 -6z"/>
<path d="M6264 4785 c-4 -9 -4 -18 -1 -21 10 -10 48 7 44 19 -6 19 -36 20 -43
2z"/>
<path d="M6605 4790 c-16 -7 -17 -9 -3 -9 9 -1 20 4 23 9 7 11 7 11 -20 0z"/>
<path d="M6690 4785 c14 -8 30 -14 35 -14 6 0 -1 6 -15 14 -14 8 -29 14 -35
14 -5 0 1 -6 15 -14z"/>
<path d="M5640 4780 c0 -5 5 -10 10 -10 6 0 10 5 10 10 0 6 -4 10 -10 10 -5 0
-10 -4 -10 -10z"/>
<path d="M7241 4769 c-28 -23 -22 -49 11 -49 29 1 62 25 53 39 -15 25 -40 29
-64 10z"/>
<path d="M7622 4770 c-43 -35 -4 -64 53 -38 32 14 31 20 -3 40 -25 15 -29 15
-50 -2z"/>
<path d="M7685 4780 c3 -5 8 -10 11 -10 2 0 4 5 4 10 0 6 -5 10 -11 10 -5 0
-7 -4 -4 -10z"/>
<path d="M7996 4773 c2 -7 -1 -15 -6 -18 -16 -10 1 -35 24 -35 12 0 31 7 42
15 19 15 19 15 -5 35 -17 15 -27 17 -36 10 -7 -6 -15 -7 -17 -3 -3 4 -3 3 -2
-4z"/>
<path d="M2683 4772 c-15 -2 -23 -10 -23 -23 0 -24 12 -24 35 1 21 23 19 27
-12 22z"/>
<path d="M3133 4770 c-24 -10 -30 -25 -14 -35 10 -6 41 21 41 36 0 5 -1 9 -2
8 -2 0 -13 -4 -25 -9z"/>
<path d="M3283 4769 c-23 -9 -30 -24 -14 -33 11 -7 45 18 40 31 -3 7 -12 7
-26 2z"/>
<path d="M6415 4770 c-4 -6 5 -10 19 -10 14 0 26 5 26 10 0 6 -9 10 -19 10
-11 0 -23 -4 -26 -10z"/>
<path d="M7536 4765 c-4 -11 1 -15 21 -15 14 0 24 1 22 3 -2 1 -11 8 -20 15
-14 10 -18 10 -23 -3z"/>
<path d="M2510 4757 c0 -21 12 -28 27 -16 19 16 16 29 -7 29 -11 0 -20 -6 -20
-13z"/>
<path d="M2965 4760 c-9 -15 3 -30 20 -24 23 9 27 34 5 34 -10 0 -22 -4 -25
-10z"/>
<path d="M4855 4708 c2 -31 -2 -56 -9 -60 -7 -5 -5 -8 7 -8 14 0 17 9 17 60 0
33 -4 60 -9 60 -4 0 -7 -24 -6 -52z"/>
<path d="M5325 4749 c-4 -6 -4 -13 -1 -16 8 -8 36 5 36 17 0 13 -27 13 -35 -1z"/>
<path d="M5457 4746 c-4 -9 2 -13 16 -12 11 1 22 7 23 14 1 7 0 8 -3 2 -2 -5
-9 -10 -14 -10 -6 0 -7 5 -4 10 3 6 2 10 -3 10 -6 0 -12 -6 -15 -14z"/>
<path d="M5740 4735 c0 -14 -6 -25 -12 -25 -9 0 -8 -4 2 -10 13 -9 13 -11 0
-20 -10 -6 -11 -10 -2 -10 6 0 12 -5 12 -11 0 -5 -4 -7 -10 -4 -5 3 -10 1 -10
-4 0 -6 5 -11 10 -11 6 0 10 -50 10 -130 0 -97 -3 -130 -12 -130 -9 0 -8 -4 2
-10 12 -8 13 -11 1 -19 -11 -7 -11 -9 0 -13 8 -3 11 -9 7 -13 -4 -4 -14 -2
-23 5 -9 8 -15 8 -15 2 0 -6 9 -14 20 -17 11 -3 20 -11 20 -16 0 -5 4 -9 9 -9
5 0 7 38 4 85 l-4 85 49 0 c43 0 50 3 56 23 8 31 7 39 -3 33 -14 -9 -23 25
-10 40 9 11 7 14 -9 14 -11 0 -22 -7 -26 -15 -3 -8 -17 -15 -30 -15 l-25 0 3
110 c2 61 -1 110 -6 110 -4 0 -8 -11 -8 -25z m80 -220 c0 -8 5 -15 10 -15 6 0
10 -7 10 -15 0 -11 -11 -15 -43 -15 -42 0 -44 1 -45 30 -1 28 2 30 34 30 24 0
34 -5 34 -15z"/>
<path d="M6943 4753 c9 -2 23 -2 30 0 6 3 -1 5 -18 5 -16 0 -22 -2 -12 -5z"/>
<path d="M7723 4743 c9 -2 25 -2 35 0 9 3 1 5 -18 5 -19 0 -27 -2 -17 -5z"/>
<path d="M7913 4743 c9 -2 25 -2 35 0 9 3 1 5 -18 5 -19 0 -27 -2 -17 -5z"/>
<path d="M4328 4723 c7 -3 16 -2 19 1 4 3 -2 6 -13 5 -11 0 -14 -3 -6 -6z"/>
<path d="M6211 4720 c0 -8 4 -24 8 -34 7 -19 8 -19 15 -1 4 12 1 24 -9 34 -13
13 -15 13 -14 1z"/>
<path d="M6480 4715 c0 -8 4 -15 10 -15 5 0 7 -8 4 -17 -5 -15 -4 -16 5 -3 15
21 14 37 -4 44 -9 3 -15 0 -15 -9z"/>
<path d="M6678 4723 c18 -2 45 -2 60 0 15 2 0 4 -33 4 -33 0 -45 -2 -27 -4z"/>
<path d="M5332 4689 c-19 -30 -8 -34 12 -4 9 14 13 25 9 25 -5 0 -14 -9 -21
-21z"/>
<path d="M5835 4700 c4 -6 62 -10 140 -10 78 0 136 4 140 10 4 6 -45 10 -140
10 -95 0 -144 -4 -140 -10z"/>
<path d="M6380 4690 c6 -11 15 -20 20 -20 6 0 5 9 -2 20 -7 11 -16 20 -21 20
-4 0 -3 -9 3 -20z"/>
<path d="M6076 4635 c-3 -10 1 -15 13 -15 11 0 22 6 24 13 3 6 6 2 6 -10 1
-18 -5 -23 -24 -23 -14 0 -25 -5 -25 -11 0 -7 10 -9 25 -5 14 4 25 2 25 -4 0
-5 -15 -10 -32 -11 -18 0 -27 -3 -20 -6 26 -10 -1 -23 -49 -23 -46 0 -65 12
-36 23 6 3 -2 6 -20 6 -24 1 -31 -3 -27 -13 4 -11 -4 -16 -33 -19 -21 -2 17
-4 85 -5 74 -1 121 2 117 7 -3 5 -1 12 5 16 6 4 10 -11 10 -39 0 -44 0 -45
-37 -49 l-38 -4 37 -1 c25 -1 38 -7 41 -19 3 -10 5 33 6 95 1 112 1 112 -23
112 -13 0 -26 -7 -30 -15z"/>
<path d="M6489 4643 c58 -2 110 -8 116 -13 14 -11 115 -1 115 11 0 5 -75 8
-167 7 -124 -2 -141 -3 -64 -5z"/>
<path d="M6798 4633 c18 -2 45 -2 60 0 15 2 0 4 -33 4 -33 0 -45 -2 -27 -4z"/>
<path d="M6943 4633 c26 -2 68 -2 95 0 26 2 4 3 -48 3 -52 0 -74 -1 -47 -3z"/>
<path d="M5809 4628 c-10 -35 -7 -48 11 -48 15 0 20 7 20 25 0 16 -6 25 -15
25 -8 0 -15 -1 -16 -2z"/>
<path d="M5943 4605 c0 -18 4 -25 15 -23 22 4 23 48 2 48 -12 0 -17 -8 -17
-25z"/>
<path d="M6347 4623 c-2 -5 -3 -15 -3 -23 1 -24 31 -17 34 8 2 14 -2 22 -12
22 -8 0 -17 -3 -19 -7z"/>
<path d="M6615 4590 c-3 -5 3 -10 14 -10 11 0 23 5 26 10 3 6 -3 10 -14 10
-11 0 -23 -4 -26 -10z"/>
<path d="M3560 4507 c0 -42 3 -77 8 -77 9 0 9 136 -1 146 -4 4 -7 -27 -7 -69z"/>
<path d="M4846 4573 c-3 -3 -6 -28 -6 -55 0 -48 0 -48 -33 -48 -21 0 -39 8
-50 21 -10 11 -21 19 -24 16 -12 -13 39 -47 71 -47 25 0 35 -5 39 -20 6 -25
29 -27 25 -2 -3 15 11 17 150 20 84 1 160 -2 170 -7 25 -13 56 8 60 42 2 18
-1 26 -7 22 -6 -3 -11 -1 -11 5 0 6 -5 8 -10 5 -8 -5 -8 -11 0 -20 9 -11 7
-12 -8 -8 -11 2 -23 -1 -28 -8 -5 -9 -2 -10 10 -6 10 4 15 3 11 -3 -4 -6 -75
-10 -175 -10 l-169 0 3 28 c3 22 8 28 36 30 17 2 39 0 48 -3 23 -9 162 -12
162 -3 0 4 8 9 18 11 9 2 0 2 -22 -1 -21 -2 -86 -1 -143 3 -82 6 -103 10 -99
21 6 15 -7 27 -18 17z m384 -97 c0 -2 -8 -10 -17 -17 -16 -13 -17 -12 -4 4 13
16 21 21 21 13z"/>
<path d="M2390 4560 c0 -12 128 -12 185 -1 31 7 15 9 -72 10 -70 1 -113 -3
-113 -9z"/>
<path d="M6350 4550 c0 -5 4 -10 9 -10 6 0 13 5 16 10 3 6 -1 10 -9 10 -9 0
-16 -4 -16 -10z"/>
<path d="M6620 4550 c0 -5 7 -10 15 -10 8 0 15 5 15 10 0 6 -7 10 -15 10 -8 0
-15 -4 -15 -10z"/>
<path d="M2775 4539 l-80 -5 78 -2 c62 -2 81 -6 97 -22 11 -11 23 -20 27 -20
4 0 2 5 -5 12 -19 19 -14 27 21 31 l32 4 -35 -1 c-20 0 -40 2 -45 5 -6 2 -46
1 -90 -2z"/>
<path d="M7610 4537 c0 -13 16 -16 91 -19 83 -3 121 3 109 16 -3 2 -49 8 -103
12 -84 6 -97 5 -97 -9z"/>
<path d="M2310 4534 c38 -8 90 -9 90 -2 0 4 -24 7 -52 7 -29 -1 -46 -3 -38 -5z"/>
<path d="M2588 4533 c12 -2 32 -2 45 0 12 2 2 4 -23 4 -25 0 -35 -2 -22 -4z"/>
<path d="M2966 4506 l2 -35 -76 -3 c-43 -2 -107 -2 -145 0 -67 3 -67 3 -61 29
5 18 3 24 -5 19 -6 -4 -11 -2 -11 4 0 6 -5 8 -11 4 -8 -4 -8 -9 0 -17 28 -28
11 -37 -64 -37 -64 0 -76 -3 -85 -20 -9 -18 -8 -20 15 -20 16 0 25 6 25 15 0
13 21 15 130 15 109 0 130 -2 130 -15 0 -19 36 -20 43 -1 5 12 43 15 218 16
117 0 214 1 215 3 7 6 16 61 9 55 -4 -4 -14 -1 -22 7 -11 12 -43 15 -151 13
l-137 -2 138 -3 c112 -3 137 -6 137 -18 0 -8 5 -15 10 -15 6 0 10 -7 10 -15 0
-23 -294 -18 -296 5 -1 8 -2 23 -3 33 0 9 -5 17 -10 17 -4 0 -7 -15 -5 -34z"/>
<path d="M3368 4533 c34 -2 90 -2 125 0 34 2 6 3 -63 3 -69 0 -97 -1 -62 -3z"/>
<path d="M3620 4532 c19 -1 42 -5 50 -8 23 -8 160 -10 160 -2 0 4 24 8 53 10
28 2 -27 3 -123 3 -96 0 -159 -1 -140 -3z"/>
<path d="M3982 4535 c7 -7 239 -8 246 -1 3 3 -52 6 -123 6 -71 0 -126 -2 -123
-5z"/>
<path d="M4275 4530 c-3 -5 -12 -7 -20 -3 -9 3 -15 -1 -15 -11 0 -9 5 -16 10
-16 18 0 10 -22 -10 -27 -33 -9 -22 -23 13 -16 26 5 30 3 20 -8 -20 -20 -16
-51 5 -47 11 2 17 13 17 31 -1 27 0 28 50 25 48 -3 50 -4 49 -31 -1 -23 2 -27
20 -25 13 2 21 10 21 23 1 11 4 26 8 33 6 9 -12 12 -82 12 l-90 0 2 28 2 27
133 2 c111 2 132 0 132 -12 0 -8 5 -15 10 -15 6 0 10 -7 10 -15 0 -11 -12 -15
-50 -15 -27 0 -50 -3 -50 -7 0 -10 110 -4 110 5 0 4 3 18 7 32 3 14 3 22 -2
18 -4 -4 -14 -1 -22 7 -11 12 -44 15 -143 15 -71 0 -131 -4 -135 -10z"/>
<path d="M4582 4535 c7 -7 239 -8 246 -1 3 3 -52 6 -123 6 -71 0 -126 -2 -123
-5z"/>
<path d="M5173 4533 c9 -2 23 -2 30 0 6 3 -1 5 -18 5 -16 0 -22 -2 -12 -5z"/>
<path d="M5262 4535 c3 -3 65 -6 137 -6 120 0 150 -6 120 -25 -8 -4 -7 -9 2
-15 12 -8 12 -10 0 -18 -22 -14 -1 -16 109 -10 l105 5 -97 2 -98 2 0 35 0 35
-142 0 c-78 0 -139 -2 -136 -5z"/>
<path d="M5593 4533 c26 -2 68 -2 95 0 26 2 4 3 -48 3 -52 0 -74 -1 -47 -3z"/>
<path d="M3940 4517 c0 -7 5 -18 12 -25 19 -19 -4 -22 -192 -25 -134 -2 -113
-3 93 -5 220 -2 267 -4 267 -16 0 -8 -7 -16 -15 -20 -21 -8 -19 -26 3 -26 28
0 67 31 51 41 -9 5 -2 11 22 17 29 9 30 10 9 11 -14 1 -31 10 -38 22 -7 12
-16 18 -19 15 -3 -3 0 -12 7 -21 11 -13 1 -15 -82 -15 -95 0 -95 0 -91 24 3
15 -1 25 -11 29 -9 4 -16 1 -16 -6z"/>
<path d="M6978 4523 c83 -2 221 -2 305 0 83 1 15 3 -153 3 -168 0 -236 -2
-152 -3z"/>
<path d="M2385 4500 c-3 -5 -1 -10 4 -10 6 0 11 5 11 10 0 6 -2 10 -4 10 -3 0
-8 -4 -11 -10z"/>
<path d="M2845 4500 c-3 -5 -1 -10 4 -10 6 0 11 5 11 10 0 6 -2 10 -4 10 -3 0
-8 -4 -11 -10z"/>
<path d="M3453 4493 c5 -21 2 -22 -77 -25 l-81 -3 98 -5 c53 -3 97 -3 97 0 0
3 -10 16 -21 30 -20 24 -21 24 -16 3z"/>
<path d="M4430 4502 c0 -12 19 -26 26 -19 2 2 -2 10 -11 17 -9 8 -15 8 -15 2z"/>
<path d="M5400 4506 c0 -3 10 -16 23 -28 17 -19 28 -23 52 -17 l30 7 -32 1
c-21 1 -36 8 -43 21 -9 17 -30 28 -30 16z"/>
<path d="M2323 4493 c9 -2 25 -2 35 0 9 3 1 5 -18 5 -19 0 -27 -2 -17 -5z"/>
<path d="M5140 4496 c0 -2 7 -6 15 -10 8 -3 15 -1 15 4 0 6 -7 10 -15 10 -8 0
-15 -2 -15 -4z"/>
<path d="M5935 4470 l-80 -6 90 -4 c102 -6 100 -6 83 6 -7 5 -49 7 -93 4z"/>
<path d="M2323 4463 c15 -2 27 -11 27 -19 0 -18 36 -18 43 0 4 10 25 16 59 19
29 2 6 3 -52 4 -58 0 -93 -2 -77 -4z"/>
<path d="M3513 4463 c9 -2 23 -2 30 0 6 3 -1 5 -18 5 -16 0 -22 -2 -12 -5z"/>
<path d="M4623 4463 c43 -4 47 -6 47 -30 0 -19 4 -24 16 -19 9 3 12 2 8 -5 -4
-7 2 -9 17 -7 30 4 35 24 7 31 -25 7 -16 22 17 30 11 3 -20 4 -70 4 -49 0 -69
-2 -42 -4z"/>
<path d="M5298 4463 c23 -2 61 -2 85 0 23 2 4 4 -43 4 -47 0 -66 -2 -42 -4z"/>
<path d="M1946 4438 c-18 -70 2 -197 38 -237 20 -22 20 -28 -1 -34 -12 -3 -8
-5 9 -6 15 0 38 -5 52 -11 17 -6 26 -6 26 0 0 6 90 10 237 10 130 0 234 3 230
6 -3 3 -110 6 -237 5 -218 -1 -233 0 -257 19 l-26 20 594 2 594 3 -600 5 -600
5 -17 35 c-13 25 -18 59 -18 118 0 79 -11 107 -24 60z"/>
<path d="M4536 4441 c-9 -14 5 -42 18 -38 18 6 20 47 2 47 -8 0 -17 -4 -20 -9z"/>
<path d="M4190 4430 c0 -5 5 -10 11 -10 5 0 7 5 4 10 -3 6 -8 10 -11 10 -2 0
-4 -4 -4 -10z"/>
<path d="M6850 4425 c0 -13 36 -15 282 -13 214 2 282 6 286 16 3 9 -58 12
-282 12 -249 0 -286 -2 -286 -15z"/>
<path d="M3637 4415 c-4 -8 -2 -17 4 -21 11 -6 39 13 39 27 0 15 -37 10 -43
-6z"/>
<path d="M3786 4414 c-4 -11 0 -15 16 -12 12 2 23 9 26 16 6 18 -35 15 -42 -4z"/>
<path d="M4916 4414 c-4 -11 0 -15 16 -12 12 2 23 9 26 16 6 18 -35 15 -42 -4z"/>
<path d="M5066 4415 c-4 -11 1 -15 19 -15 16 0 25 6 25 15 0 8 -9 15 -19 15
-10 0 -21 -7 -25 -15z"/>
<path d="M5377 4423 c-13 -12 -7 -23 12 -23 10 0 21 7 25 15 5 15 -24 22 -37
8z"/>
<path d="M3414 4399 c-11 -18 13 -34 31 -19 8 7 15 16 15 21 0 13 -38 11 -46
-2z"/>
<path d="M4195 4400 c-3 -5 -1 -10 4 -10 6 0 11 5 11 10 0 6 -2 10 -4 10 -3 0
-8 -4 -11 -10z"/>
<path d="M4859 4398 c-5 -67 -3 -108 3 -108 4 0 8 27 8 60 0 33 -2 60 -5 60
-3 0 -5 -6 -6 -12z"/>
<path d="M5873 4393 c20 -2 54 -2 75 0 20 2 3 4 -38 4 -41 0 -58 -2 -37 -4z"/>
<path d="M4922 4368 c-7 -7 -12 -16 -12 -20 0 -12 28 -10 36 3 10 17 -10 31
-24 17z"/>
<path d="M5055 4363 c-18 -17 -18 -18 -1 -21 24 -5 44 14 29 29 -7 7 -16 5
-28 -8z"/>
<path d="M6245 4370 c3 -5 11 -10 16 -10 6 0 7 5 4 10 -3 6 -11 10 -16 10 -6
0 -7 -4 -4 -10z"/>
<path d="M6515 4370 c3 -5 11 -10 16 -10 6 0 7 5 4 10 -3 6 -11 10 -16 10 -6
0 -7 -4 -4 -10z"/>
<path d="M6785 4370 c3 -5 11 -10 16 -10 6 0 7 5 4 10 -3 6 -11 10 -16 10 -6
0 -7 -4 -4 -10z"/>
<path d="M6072 4358 c3 -7 13 -15 24 -17 16 -3 17 -1 5 13 -16 19 -34 21 -29
4z"/>
<path d="M6340 4361 c0 -6 5 -13 10 -16 6 -4 8 -11 5 -16 -4 -5 -2 -9 4 -9 15
0 19 24 5 37 -15 15 -24 17 -24 4z"/>
<path d="M6610 4361 c0 -11 31 -24 39 -16 3 3 -1 10 -9 15 -19 12 -30 12 -30
1z"/>
<path d="M5968 4343 c7 -3 16 -2 19 1 4 3 -2 6 -13 5 -11 0 -14 -3 -6 -6z"/>
<path d="M4400 4320 c0 -6 30 -10 73 -9 49 0 66 3 52 9 -28 12 -125 12 -125 0z"/>
<path d="M6080 4319 c0 -5 5 -7 10 -4 6 3 10 8 10 11 0 2 -4 4 -10 4 -5 0 -10
-5 -10 -11z"/>
<path d="M6265 4320 c-3 -5 -1 -10 4 -10 6 0 11 5 11 10 0 6 -2 10 -4 10 -3 0
-8 -4 -11 -10z"/>
<path d="M6620 4320 c0 -5 5 -10 10 -10 6 0 10 5 10 10 0 6 -4 10 -10 10 -5 0
-10 -4 -10 -10z"/>
<path d="M3857 4313 c-13 -12 -7 -23 13 -23 11 0 20 7 20 15 0 15 -21 21 -33
8z"/>
<path d="M3986 4305 c-3 -10 1 -15 13 -15 10 0 21 7 25 15 3 10 -1 15 -13 15
-10 0 -21 -7 -25 -15z"/>
<path d="M5806 4305 c-3 -10 1 -15 13 -15 10 0 21 7 25 15 3 10 -1 15 -13 15
-10 0 -21 -7 -25 -15z"/>
<path d="M5936 4305 c-3 -10 1 -15 13 -15 10 0 21 7 25 15 3 10 -1 15 -13 15
-10 0 -21 -7 -25 -15z"/>
<path d="M6210 4304 c0 -9 7 -14 17 -12 25 5 28 28 4 28 -12 0 -21 -6 -21 -16z"/>
<path d="M6485 4309 c-4 -6 -4 -13 -1 -16 8 -8 36 5 36 17 0 13 -27 13 -35 -1z"/>
<path d="M6757 4313 c-13 -12 -7 -23 13 -23 11 0 20 7 20 15 0 15 -21 21 -33
8z"/>
<path d="M6860 4207 c0 -42 4 -77 8 -77 9 0 8 137 -1 147 -4 3 -7 -28 -7 -70z"/>
<path d="M7843 4273 c9 -2 25 -2 35 0 9 3 1 5 -18 5 -19 0 -27 -2 -17 -5z"/>
<path d="M8140 4207 c0 -42 4 -77 8 -77 9 0 8 137 -1 147 -4 3 -7 -28 -7 -70z"/>
<path d="M8833 4273 c15 -2 39 -2 55 0 15 2 2 4 -28 4 -30 0 -43 -2 -27 -4z"/>
<path d="M4947 4263 c18 -2 50 -2 70 0 21 2 7 4 -32 4 -38 0 -55 -2 -38 -4z"/>
<path d="M7274 4226 c0 -15 8 -27 19 -30 11 -3 16 0 13 7 -3 7 -9 20 -12 30
-9 25 -22 21 -20 -7z"/>
<path d="M7835 4240 l-50 -7 48 -1 c75 -3 55 -22 -25 -24 l-73 -2 75 -5 c41
-3 107 -4 145 -1 l70 5 -67 3 c-92 4 -86 22 7 22 43 0 75 4 75 10 0 11 -124
11 -205 0z"/>
<path d="M8405 4240 c-4 -6 25 -10 80 -10 55 0 84 4 80 10 -3 6 -39 10 -80 10
-41 0 -77 -4 -80 -10z"/>
<path d="M8860 4240 c0 -6 58 -10 155 -10 97 0 155 4 155 10 0 6 -58 10 -155
10 -97 0 -155 -4 -155 -10z"/>
<path d="M3850 4228 c0 -5 -143 -8 -318 -8 l-319 0 1 -67 1 -68 -630 -5 -630
-5 630 -5 c592 -5 630 -6 629 -22 -1 -10 2 -18 7 -18 5 0 9 9 9 20 0 20 7 20
570 20 563 0 570 0 570 -20 0 -11 5 -20 10 -20 6 0 10 9 10 20 0 20 7 20 569
20 l570 0 4 -27 4 -28 2 28 1 27 128 0 c85 0 132 -4 140 -12 9 -9 18 -9 37 0
14 7 43 12 63 12 21 0 43 -5 50 -12 9 -9 18 -9 37 0 15 7 74 12 138 12 73 0
117 -4 125 -12 9 -9 18 -9 37 0 14 7 43 12 63 12 21 0 43 -5 50 -12 9 -9 18
-9 37 0 32 15 90 15 116 2 14 -8 31 -7 62 4 l42 15 -35 1 c-19 1 -67 1 -107 0
-68 -1 -71 0 -66 19 4 18 13 21 54 21 27 0 49 -4 49 -10 0 -5 11 -10 25 -10
14 0 25 5 25 10 0 6 12 10 27 10 14 0 24 3 20 6 -3 4 -255 6 -560 5 l-554 -2
0 40 c0 37 2 40 31 44 17 2 -241 3 -574 3 l-605 -1 567 -2 567 -3 -1 -40 0
-40 -569 0 -569 0 0 45 c0 25 -4 45 -10 45 -5 0 -10 -20 -10 -45 l0 -45 -570
0 c-497 0 -570 2 -570 15 0 12 38 15 263 18 l262 2 -262 3 c-256 2 -263 3
-263 22 0 20 7 20 568 21 360 1 541 5 496 10 -95 11 -444 16 -444 7z m520
-128 c0 -20 -7 -20 -570 -20 -563 0 -570 0 -570 20 0 20 7 20 570 20 563 0
570 0 570 -20z m1160 0 c0 -20 -7 -20 -570 -20 -563 0 -570 0 -570 20 0 20 7
20 570 20 563 0 570 0 570 -20z m281 7 c-6 -8 -8 -17 -4 -20 3 -4 -55 -7 -130
-7 -130 0 -137 1 -137 20 0 19 7 20 141 20 117 0 140 -2 130 -13z m150 0 c-6
-8 -8 -17 -4 -20 3 -4 -21 -7 -54 -7 -56 0 -61 2 -56 20 5 17 14 20 65 20 49
0 58 -2 49 -13z m305 -7 c0 -19 -7 -20 -139 -20 -116 0 -138 2 -128 13 6 8 8
17 4 20 -3 4 54 7 128 7 128 0 135 -1 135 -20z m150 0 c0 -18 -7 -20 -58 -20
-51 0 -57 2 -55 20 1 17 8 20 57 20 49 0 56 -2 56 -20z"/>
<path d="M5650 4225 c0 -8 5 -15 11 -15 6 0 9 -9 6 -20 -3 -11 -2 -20 3 -20
14 0 18 36 5 53 -15 21 -25 22 -25 2z"/>
<path d="M6110 4225 c0 -8 5 -15 11 -15 6 0 8 -9 4 -20 -4 -13 -2 -20 6 -20 7
0 9 3 6 7 -4 3 -3 11 3 18 6 7 3 17 -10 28 -17 14 -20 14 -20 2z"/>
<path d="M6710 4226 c0 -10 -13 -16 -37 -19 -24 -3 -20 -3 10 -2 43 2 48 0 44
-16 -3 -11 -2 -19 3 -19 4 0 10 10 14 23 8 32 7 39 -4 32 -5 -3 -10 -1 -10 4
0 6 -4 11 -10 11 -5 0 -10 -6 -10 -14z"/>
<path d="M7084 4228 c-5 -9 -25 -19 -44 -21 -20 -2 -14 -3 13 -2 43 2 48 0 44
-16 -3 -11 -1 -19 4 -19 5 0 9 3 9 8 0 4 3 18 7 31 4 16 3 22 -5 18 -5 -4 -12
-2 -14 5 -3 9 -7 7 -14 -4z"/>
<path d="M7390 4225 c0 -8 5 -15 11 -15 6 0 8 -9 4 -20 -4 -13 -2 -20 6 -20 7
0 9 3 6 7 -4 3 -3 11 3 18 6 7 3 17 -10 28 -17 14 -20 14 -20 2z"/>
<path d="M7690 4225 c0 -8 5 -15 10 -15 17 0 11 -28 -7 -39 -14 -8 -4 -10 42
-11 33 0 67 5 75 10 11 7 0 10 -39 10 -44 0 -52 3 -47 16 3 8 0 22 -8 30 -19
18 -26 18 -26 -1z"/>
<path d="M8210 4226 c0 -8 -8 -17 -17 -19 -10 -2 -5 -3 11 -1 24 3 28 1 23
-16 -3 -11 -2 -20 3 -20 4 0 10 10 14 23 8 32 7 39 -4 32 -5 -3 -10 -1 -10 4
0 6 -4 11 -10 11 -5 0 -10 -6 -10 -14z"/>
<path d="M8670 4228 c0 -9 -8 -19 -17 -21 -14 -4 -12 -5 5 -6 12 0 22 -5 22
-11 0 -6 -70 -10 -187 -11 -136 0 -181 -3 -163 -10 14 -6 69 -9 123 -7 78 2
94 1 81 -9 -12 -9 -17 -29 -19 -73 -1 -34 3 -64 7 -66 13 -8 40 17 34 33 -3 7
0 13 6 13 8 0 9 3 2 10 -5 5 -8 28 -6 50 4 39 5 40 42 40 58 0 100 11 100 26
0 11 18 14 73 16 l72 1 -78 7 c-52 4 -82 11 -88 21 -7 12 -9 11 -9 -3z"/>
<path d="M8758 4233 c18 -2 45 -2 60 0 15 2 0 4 -33 4 -33 0 -45 -2 -27 -4z"/>
<path d="M9270 4226 c0 -10 -13 -16 -37 -19 -24 -3 -20 -3 10 -2 43 2 48 0 44
-16 -3 -11 -2 -19 3 -19 4 0 10 10 14 23 8 32 7 39 -4 32 -5 -3 -10 -1 -10 4
0 6 -4 11 -10 11 -5 0 -10 -6 -10 -14z"/>
<path d="M6972 4192 c1 -19 6 -28 18 -28 15 0 15 3 2 28 -7 15 -15 28 -17 28
-2 0 -3 -13 -3 -28z"/>
<path d="M5618 4203 c7 -3 16 -2 19 1 4 3 -2 6 -13 5 -11 0 -14 -3 -6 -6z"/>
<path d="M5727 4203 c18 -2 50 -2 70 0 21 2 7 4 -32 4 -38 0 -55 -2 -38 -4z"/>
<path d="M5843 4204 c3 -3 40 -6 82 -6 42 0 79 3 82 6 4 3 -33 6 -82 6 -49 0
-86 -3 -82 -6z"/>
<path d="M6038 4203 c12 -2 32 -2 45 0 12 2 2 4 -23 4 -25 0 -35 -2 -22 -4z"/>
<path d="M6187 4203 c18 -2 50 -2 70 0 21 2 7 4 -32 4 -38 0 -55 -2 -38 -4z"/>
<path d="M6300 4203 c0 -5 70 -8 155 -8 85 0 155 3 155 8 0 4 -70 7 -155 7
-85 0 -155 -3 -155 -7z"/>
<path d="M6783 4203 c15 -2 37 -2 50 0 12 2 0 4 -28 4 -27 0 -38 -2 -22 -4z"/>
<path d="M6908 4203 c12 -2 30 -2 40 0 9 3 -1 5 -23 4 -22 0 -30 -2 -17 -4z"/>
<path d="M7157 4203 c18 -2 50 -2 70 0 21 2 7 4 -32 4 -38 0 -55 -2 -38 -4z"/>
<path d="M7333 4203 c9 -2 25 -2 35 0 9 3 1 5 -18 5 -19 0 -27 -2 -17 -5z"/>
<path d="M7468 4203 c17 -2 47 -2 65 0 17 2 3 4 -33 4 -36 0 -50 -2 -32 -4z"/>
<path d="M7577 4187 c3 -14 12 -23 24 -24 18 -2 18 -1 1 22 -22 31 -30 31 -25
2z"/>
<path d="M7618 4203 c12 -2 32 -2 45 0 12 2 2 4 -23 4 -25 0 -35 -2 -22 -4z"/>
<path d="M8078 4203 c12 -2 30 -2 40 0 9 3 -1 5 -23 4 -22 0 -30 -2 -17 -4z"/>
<path d="M8287 4203 c18 -2 50 -2 70 0 21 2 7 4 -32 4 -38 0 -55 -2 -38 -4z"/>
<path d="M8458 4203 c18 -2 45 -2 60 0 15 2 0 4 -33 4 -33 0 -45 -2 -27 -4z"/>
<path d="M8593 4203 c9 -2 23 -2 30 0 6 3 -1 5 -18 5 -16 0 -22 -2 -12 -5z"/>
<path d="M8933 4203 c48 -2 125 -2 170 0 45 1 6 3 -88 3 -93 0 -130 -2 -82 -3z"/>
<path d="M9338 4203 c12 -2 32 -2 45 0 12 2 2 4 -23 4 -25 0 -35 -2 -22 -4z"/>
<path d="M2670 4169 c-25 -3 86 -6 245 -6 160 0 279 1 265 3 -51 6 -466 9
-510 3z"/>
<path d="M5840 4170 c0 -5 5 -10 10 -10 6 0 10 5 10 10 0 6 -4 10 -10 10 -5 0
-10 -4 -10 -10z"/>
<path d="M5990 4170 c0 -5 5 -10 10 -10 6 0 10 5 10 10 0 6 -4 10 -10 10 -5 0
-10 -4 -10 -10z"/>
<path d="M7275 4170 c3 -5 8 -10 11 -10 2 0 4 5 4 10 0 6 -5 10 -11 10 -5 0
-7 -4 -4 -10z"/>
<path d="M8030 4170 c0 -5 5 -10 11 -10 5 0 7 5 4 10 -3 6 -8 10 -11 10 -2 0
-4 -4 -4 -10z"/>
<path d="M2557 4154 c7 -18 54 -16 61 4 2 8 -8 12 -32 12 -28 0 -34 -3 -29
-16z"/>
<path d="M3766 4155 c4 -8 16 -15 29 -15 13 0 25 7 29 15 4 12 -3 15 -29 15
-26 0 -33 -3 -29 -15z"/>
<path d="M3968 4163 c72 -2 192 -2 265 0 72 1 13 3 -133 3 -146 0 -205 -2
-132 -3z"/>
<path d="M4522 4163 c70 -2 187 -2 260 0 73 1 16 3 -127 3 -143 0 -203 -2
-133 -3z"/>
<path d="M4926 4155 c4 -8 16 -15 29 -15 13 0 25 7 29 15 4 12 -3 15 -29 15
-26 0 -33 -3 -29 -15z"/>
<path d="M5122 4163 c70 -2 187 -2 260 0 73 1 16 3 -127 3 -143 0 -203 -2
-133 -3z"/>
<path d="M5568 4163 c6 -2 18 -2 25 0 6 3 1 5 -13 5 -14 0 -19 -2 -12 -5z"/>
<path d="M7239 4148 c-5 -18 -2 -91 4 -95 5 -3 3 -9 -4 -14 -25 -15 5 -33 31
-19 17 9 19 14 9 26 -9 11 -9 14 2 14 9 0 10 3 2 11 -7 7 -8 21 -3 39 5 16 6
31 2 34 -5 6 -41 9 -43 4z"/>
<path d="M7846 4142 c-3 -5 -3 -23 -1 -40 3 -20 0 -32 -7 -32 -9 0 -9 -3 -1
-11 6 -6 9 -17 7 -24 -7 -18 15 -30 29 -16 7 7 12 39 13 71 1 51 -2 60 -17 60
-10 0 -20 -4 -23 -8z"/>
<path d="M7610 4125 c0 -10 -8 -13 -27 -9 -17 3 -36 -1 -48 -10 -15 -12 -16
-15 -5 -16 13 0 13 -1 0 -10 -13 -9 -13 -12 2 -20 9 -6 15 -17 12 -24 -7 -18
15 -31 28 -18 6 6 12 22 14 36 5 46 43 75 104 79 54 3 54 3 -12 5 -54 2 -68
-1 -68 -13z"/>
<path d="M1962 4125 c7 -7 1229 -8 1236 -1 3 4 -275 6 -618 6 -343 0 -621 -2
-618 -5z"/>
<path d="M6945 4112 c-12 -8 -14 -86 -3 -98 11 -10 40 17 34 33 -3 7 -1 13 5
13 6 0 7 6 2 13 -4 6 -6 20 -5 30 3 17 -15 23 -33 9z"/>
<path d="M8005 4112 c-12 -8 -14 -86 -3 -98 11 -10 40 17 34 33 -3 7 -1 13 5
13 6 0 7 6 2 13 -4 6 -6 20 -5 30 3 17 -15 23 -33 9z"/>
<path d="M8374 4108 c-11 -17 -13 -88 -3 -94 5 -2 17 1 28 8 15 9 17 15 9 25
-7 9 -7 13 1 13 7 0 9 5 4 13 -4 6 -6 20 -5 30 4 19 -23 24 -34 5z"/>
<path d="M8821 4106 c-9 -11 -9 -15 1 -19 10 -4 10 -7 -1 -15 -9 -7 -10 -11
-2 -17 9 -5 9 -10 1 -20 -16 -19 4 -29 30 -15 17 9 19 14 9 26 -9 11 -9 14 1
14 10 0 10 3 1 14 -8 10 -9 16 -1 21 13 8 3 25 -14 25 -8 0 -19 -6 -25 -14z"/>
<path d="M8976 4111 c-3 -5 -3 -16 0 -25 4 -10 1 -16 -7 -16 -10 0 -10 -3 -2
-11 6 -6 9 -17 7 -24 -7 -18 14 -29 29 -16 19 15 15 95 -5 99 -9 2 -19 -1 -22
-7z"/>
<path d="M6864 3975 c0 -71 1 -99 3 -62 2 37 2 96 0 130 -2 34 -3 4 -3 -68z"/>
<path d="M5793 4026 c-4 -5 -1 -6 4 -3 6 4 13 -3 16 -15 6 -21 7 -21 27 -3 11
10 20 22 20 26 0 11 -60 6 -67 -5z"/>
<path d="M5943 4026 c-4 -5 -1 -6 4 -3 6 4 13 -3 16 -15 6 -21 7 -21 27 -3 11
10 20 22 20 26 0 11 -60 6 -67 -5z"/>
<path d="M6274 4026 c-13 -11 -16 -18 -8 -26 7 -7 16 -5 32 8 33 29 12 44 -24
18z"/>
<path d="M6424 4026 c-13 -11 -16 -18 -8 -26 7 -7 16 -5 32 8 33 29 12 44 -24
18z"/>
<path d="M6551 4034 c-1 -5 5 -18 12 -28 12 -17 14 -17 37 2 30 24 20 40 -14
24 -19 -8 -26 -8 -30 1 -2 7 -5 7 -5 1z"/>
<path d="M2653 4023 c9 -2 23 -2 30 0 6 3 -1 5 -18 5 -16 0 -22 -2 -12 -5z"/>
<path d="M2748 4023 c12 -2 32 -2 45 0 12 2 2 4 -23 4 -25 0 -35 -2 -22 -4z"/>
<path d="M3738 4023 c6 -2 18 -2 25 0 6 3 1 5 -13 5 -14 0 -19 -2 -12 -5z"/>
<path d="M5690 3820 c0 -6 33 -10 79 -10 44 0 83 5 86 10 4 6 -25 10 -79 10
-51 0 -86 -4 -86 -10z"/>
<path d="M6258 3823 c12 -2 32 -2 45 0 12 2 2 4 -23 4 -25 0 -35 -2 -22 -4z"/>
<path d="M6528 3823 c12 -2 30 -2 40 0 9 3 -1 5 -23 4 -22 0 -30 -2 -17 -4z"/>
<path d="M6075 3799 l-80 -5 78 -2 c62 -2 81 -6 97 -22 11 -11 23 -20 27 -20
4 0 2 5 -5 12 -21 21 -13 28 31 28 42 0 44 -1 44 -29 l0 -30 -76 -3 c-42 -2
-106 -2 -144 0 -67 3 -67 3 -61 29 5 17 3 24 -4 19 -6 -3 -13 0 -16 6 -3 7 -3
-2 0 -19 l6 -33 -72 0 c-66 0 -74 -2 -102 -30 -28 -28 -28 -30 -8 -30 30 0 60
18 60 35 0 12 22 15 130 15 109 0 130 -2 130 -15 0 -20 36 -19 44 1 4 12 19
15 58 14 29 -1 121 0 203 1 l150 3 -140 6 c-135 5 -140 6 -141 27 -2 45 -9 50
-63 43 -28 -3 -54 -4 -58 -1 -5 3 -44 3 -88 0z"/>
<path d="M5615 3795 c23 -8 85 -10 85 -3 0 4 -21 8 -47 7 -27 0 -43 -2 -38 -4z"/>
<path d="M5888 3793 c12 -2 32 -2 45 0 12 2 2 4 -23 4 -25 0 -35 -2 -22 -4z"/>
<path d="M6423 3793 c112 -3 137 -6 137 -18 0 -8 5 -15 11 -15 6 0 9 -9 6 -20
-3 -11 -1 -20 4 -20 5 0 9 3 9 8 0 4 3 18 7 32 3 14 3 22 -2 18 -4 -4 -14 -1
-22 7 -11 12 -43 15 -151 13 l-137 -2 138 -3z"/>
<path d="M6668 3793 c34 -2 90 -2 125 0 34 2 6 3 -63 3 -69 0 -97 -1 -62 -3z"/>
<path d="M6920 3792 c19 -1 42 -5 50 -8 23 -8 160 -10 160 -2 0 4 24 8 53 10
28 2 -27 3 -123 3 -96 0 -159 -1 -140 -3z"/>
<path d="M5685 3760 c-3 -5 -1 -10 4 -10 6 0 11 5 11 10 0 6 -2 10 -4 10 -3 0
-8 -4 -11 -10z"/>
<path d="M6145 3760 c-3 -5 -1 -10 4 -10 6 0 11 5 11 10 0 6 -2 10 -4 10 -3 0
-8 -4 -11 -10z"/>
<path d="M6753 3753 c5 -21 2 -22 -77 -25 l-81 -3 98 -5 c53 -3 97 -3 97 0 0
3 -10 16 -21 30 -20 24 -21 24 -16 3z"/>
<path d="M2440 3750 c0 -5 5 -10 10 -10 6 0 10 5 10 10 0 6 -4 10 -10 10 -5 0
-10 -4 -10 -10z"/>
<path d="M3400 3750 c0 -5 5 -10 10 -10 6 0 10 5 10 10 0 6 -4 10 -10 10 -5 0
-10 -4 -10 -10z"/>
<path d="M2359 3737 c-21 -16 -13 -37 14 -37 33 1 59 24 45 38 -15 15 -39 15
-59 -1z m37 -12 c-8 -8 -20 -15 -26 -15 -16 0 12 29 28 30 10 0 10 -4 -2 -15z"/>
<path d="M3319 3737 c-18 -14 -14 -37 6 -37 7 0 24 6 37 13 20 10 23 15 12 25
-16 15 -34 15 -55 -1z"/>
<path d="M4488 3718 c-8 -7 -18 -21 -21 -30 -8 -23 25 -24 48 -2 27 28 4 56
-27 32z"/>
<path d="M5623 3722 c15 -2 27 -10 27 -18 0 -18 36 -18 43 0 4 10 25 16 59 19
29 2 6 3 -52 3 -58 0 -93 -2 -77 -4z"/>
<path d="M6813 3723 c9 -2 23 -2 30 0 6 3 -1 5 -18 5 -16 0 -22 -2 -12 -5z"/>
<path d="M3864 3710 c-39 -15 -35 -28 4 -14 37 13 76 10 100 -9 7 -5 15 -8 18
-5 7 8 -61 38 -83 37 -10 0 -28 -4 -39 -9z"/>
<path d="M4560 3700 c0 -5 5 -10 10 -10 6 0 10 5 10 10 0 6 -4 10 -10 10 -5 0
-10 -4 -10 -10z"/>
<path d="M4999 3680 l-24 -20 37 15 c46 19 66 19 101 1 15 -8 27 -11 27 -7 0
13 -49 31 -84 31 -19 0 -44 -9 -57 -20z"/>
<path d="M5934 3678 c-3 -5 18 -8 45 -8 28 0 51 4 51 10 0 11 -89 9 -96 -2z"/>
<path d="M3810 3642 c-39 -32 -6 -57 35 -27 17 14 18 17 4 31 -14 13 -18 13
-39 -4z"/>
<path d="M3966 3641 c-20 -22 -14 -41 13 -41 27 0 54 33 39 48 -17 17 -32 15
-52 -7z m44 1 c0 -4 -9 -13 -20 -20 -23 -14 -26 -8 -7 13 13 16 27 19 27 7z"/>
<path d="M5640 3642 c-39 -31 -5 -58 36 -28 17 14 18 16 3 31 -14 15 -18 14
-39 -3z"/>
<path d="M4465 3630 c3 -5 8 -10 11 -10 2 0 4 5 4 10 0 6 -5 10 -11 10 -5 0
-7 -4 -4 -10z"/>
<path d="M5780 3629 c0 -5 5 -7 10 -4 6 3 10 8 10 11 0 2 -4 4 -10 4 -5 0 -10
-5 -10 -11z"/>
<path d="M5940 3629 c0 -5 5 -7 10 -4 6 3 10 8 10 11 0 2 -4 4 -10 4 -5 0 -10
-5 -10 -11z"/>
<path d="M9145 5250 c3 -5 31 -10 61 -10 34 0 53 4 49 10 -3 6 -31 10 -61 10
-34 0 -53 -4 -49 -10z"/>
<path d="M8290 5246 c0 -2 14 -6 30 -8 17 -3 30 -1 30 4 0 4 -13 8 -30 8 -16
0 -30 -2 -30 -4z"/>
<path d="M8389 5243 c19 -3 40 -11 48 -19 16 -16 33 -19 33 -6 0 14 -49 32
-83 30 l-32 -1 34 -4z"/>
<path d="M8480 5244 c35 -7 148 -9 144 -2 -3 4 -40 7 -82 7 -42 -1 -70 -3 -62
-5z"/>
<path d="M8648 5243 c6 -2 18 -2 25 0 6 3 1 5 -13 5 -14 0 -19 -2 -12 -5z"/>
<path d="M8440 5190 c0 -5 5 -10 10 -10 6 0 10 5 10 10 0 6 -4 10 -10 10 -5 0
-10 -4 -10 -10z"/>
<path d="M8577 5183 c-13 -12 -7 -23 13 -23 11 0 20 7 20 15 0 15 -21 21 -33
8z"/>
<path d="M8335 5110 c-3 -5 -1 -10 4 -10 6 0 11 5 11 10 0 6 -2 10 -4 10 -3 0
-8 -4 -11 -10z"/>
<path d="M8377 5083 c18 -2 50 -2 70 0 21 2 7 4 -32 4 -38 0 -55 -2 -38 -4z"/>
<path d="M8937 4998 c-21 -4 -48 -15 -60 -24 -15 -11 -16 -15 -5 -11 92 31
151 32 209 1 39 -20 37 -10 -3 14 -41 24 -91 32 -141 20z"/>
<path d="M8760 4951 c-15 -29 -12 -41 10 -41 24 0 63 37 55 50 -11 17 -54 11
-65 -9z"/>
<path d="M9141 4948 c-11 -30 0 -41 32 -33 46 12 47 55 1 55 -16 0 -28 -8 -33
-22z"/>
<path d="M8941 4948 c-25 -4 -51 -14 -59 -22 -12 -12 -5 -11 42 2 51 14 61 14
112 0 44 -13 53 -13 43 -2 -21 20 -89 31 -138 22z"/>
<path d="M9350 4901 c0 -5 -7 -17 -15 -25 -12 -12 -14 -20 -5 -36 9 -16 8 -20
-5 -20 -18 0 -19 -5 -5 -31 14 -25 35 -24 68 2 l27 21 6 -34 6 -33 2 37 c1 27
6 38 20 43 23 7 18 32 -7 38 -15 4 -15 5 1 6 9 0 17 6 17 11 0 17 -31 24 -40
10 -7 -11 -12 -10 -25 3 -18 18 -45 23 -45 8z m80 -67 c0 -10 -7 -14 -22 -12
-32 5 -35 28 -4 28 17 0 26 -5 26 -16z"/>
<path d="M8762 4878 c-13 -6 -21 -17 -18 -24 3 -7 0 -15 -7 -18 -7 -2 -3 -5 8
-6 17 -1 18 -2 3 -8 -16 -6 -15 -9 2 -32 19 -25 20 -25 50 -8 18 10 28 12 23
5 -14 -22 -12 -39 3 -33 8 3 32 -3 53 -13 60 -31 104 -35 166 -16 66 21 84 39
28 29 -21 -4 -39 -11 -41 -15 -5 -12 -89 -11 -96 0 -4 5 -25 12 -47 16 -30 5
-38 10 -30 18 8 8 2 19 -21 40 -30 25 -32 29 -16 41 13 10 15 15 6 24 -15 15
-35 14 -66 0z"/>
<path d="M9149 4880 c-11 -6 -16 -25 -18 -58 -1 -44 1 -48 22 -47 13 0 32 6
41 14 15 13 21 12 47 -3 17 -10 33 -15 36 -12 3 3 -5 10 -18 15 -13 6 -35 19
-49 31 -23 19 -24 21 -8 33 32 25 -15 49 -53 27z"/>
<path d="M8868 4863 c7 -3 16 -2 19 1 4 3 -2 6 -13 5 -11 0 -14 -3 -6 -6z"/>
<path d="M8913 4863 c9 -2 25 -2 35 0 9 3 1 5 -18 5 -19 0 -27 -2 -17 -5z"/>
<path d="M9005 4849 c51 -10 92 -10 50 1 -16 4 -43 8 -60 8 -25 0 -24 -2 10
-9z"/>
<path d="M9098 4833 c7 -3 16 -2 19 1 4 3 -2 6 -13 5 -11 0 -14 -3 -6 -6z"/>
<path d="M8522 4808 c-20 -20 -14 -36 13 -30 16 3 25 11 25 23 0 21 -20 25
-38 7z"/>
<path d="M8673 4788 c-10 -17 -13 -38 -4 -38 15 0 51 32 46 41 -9 13 -32 11
-42 -3z"/>
<path d="M8970 4764 c0 -10 7 -14 22 -12 32 5 35 28 4 28 -17 0 -26 -5 -26
-16z"/>
<path d="M8478 4753 c-25 -3 -38 -9 -38 -19 0 -21 195 -21 204 1 4 12 -5 15
-48 15 -30 0 -60 1 -68 3 -7 2 -30 2 -50 0z"/>
<path d="M8740 4750 c0 -5 7 -10 16 -10 8 0 12 5 9 10 -3 6 -10 10 -16 10 -5
0 -9 -4 -9 -10z"/>
<path d="M9125 4750 c-3 -5 3 -10 15 -10 12 0 18 5 15 10 -3 6 -10 10 -15 10
-5 0 -12 -4 -15 -10z"/>
<path d="M9170 4750 c0 -5 7 -10 15 -10 8 0 15 5 15 10 0 6 -7 10 -15 10 -8 0
-15 -4 -15 -10z"/>
<path d="M9318 4743 c7 -3 16 -2 19 1 4 3 -2 6 -13 5 -11 0 -14 -3 -6 -6z"/>
<path d="M4917 5083 c18 -2 50 -2 70 0 21 2 7 4 -32 4 -38 0 -55 -2 -38 -4z"/>
<path d="M6930 5005 c0 -8 5 -15 10 -15 6 0 10 7 10 15 0 8 -4 15 -10 15 -5 0
-10 -7 -10 -15z"/>
<path d="M6378 4993 c12 -2 30 -2 40 0 9 3 -1 5 -23 4 -22 0 -30 -2 -17 -4z"/>
<path d="M6555 4991 c28 -3 86 -3 130 0 68 5 61 6 -50 6 -78 0 -110 -2 -80 -6z"/>
<path d="M6853 4993 c15 -2 37 -2 50 0 12 2 0 4 -28 4 -27 0 -38 -2 -22 -4z"/>
<path d="M7930 5005 c0 -8 5 -15 10 -15 6 0 10 7 10 15 0 8 -4 15 -10 15 -5 0
-10 -7 -10 -15z"/>
<path d="M8013 4993 c15 -2 37 -2 50 0 12 2 0 4 -28 4 -27 0 -38 -2 -22 -4z"/>
<path d="M3648 3493 c23 -2 61 -2 85 0 23 2 4 4 -43 4 -47 0 -66 -2 -42 -4z"/>
<path d="M3848 3493 c18 -2 45 -2 60 0 15 2 0 4 -33 4 -33 0 -45 -2 -27 -4z"/>
<path d="M3942 3494 c7 -7 410 -5 417 1 2 3 -92 5 -209 5 -117 0 -211 -3 -208
-6z"/>
<path d="M3782 3230 c-19 -4 -39 -13 -45 -20 -9 -8 -5 -9 16 -1 41 16 117 13
152 -4 l30 -15 -24 20 c-13 11 -31 20 -40 20 -9 0 -25 2 -36 4 -11 3 -35 1
-53 -4z"/>
<path d="M3642 3198 c-22 -22 -14 -40 16 -36 33 4 47 48 15 48 -11 0 -24 -5
-31 -12z"/>
<path d="M3960 3191 c-14 -28 -13 -31 14 -31 26 0 51 24 41 40 -10 17 -44 11
-55 -9z"/>
<path d="M3783 3188 c-23 -5 -47 -16 -55 -25 -12 -15 -10 -14 19 0 40 21 115
22 153 2 17 -9 30 -13 30 -11 0 9 -43 29 -75 36 -16 3 -49 2 -72 -2z"/>
<path d="M4200 3140 c0 -5 5 -10 10 -10 6 0 10 5 10 10 0 6 -4 10 -10 10 -5 0
-10 -4 -10 -10z"/>
<path d="M3960 3130 c-12 -8 -13 -13 -2 -30 7 -12 8 -20 2 -20 -16 0 -11 -27
6 -34 22 -8 59 23 44 38 -15 15 -12 26 6 26 14 0 14 3 4 15 -14 17 -38 19 -60
5z"/>
<path d="M4118 3126 c-14 -10 -15 -15 -5 -25 9 -9 9 -14 -1 -20 -23 -14 14
-44 38 -31 25 13 33 27 20 35 -16 10 -12 25 6 25 14 0 14 3 4 15 -15 18 -39
19 -62 1z"/>
<path d="M4200 3089 c0 -5 5 -7 10 -4 6 3 10 8 10 11 0 2 -4 4 -10 4 -5 0 -10
-5 -10 -11z"/>
<path d="M3690 3029 l-35 -6 35 -2 c19 -1 55 -8 79 -17 45 -15 81 -13 134 9
15 7 27 15 27 20 0 4 -16 0 -36 -8 -45 -18 -91 -19 -135 -2 -21 8 -48 11 -69
6z"/>
<path d="M4964 3506 c-15 -7 -21 -18 -20 -38 l1 -28 285 2 285 3 -277 2 c-234
3 -278 6 -278 18 0 8 7 18 16 23 24 13 13 29 -12 18z"/>
<path d="M4533 3493 c76 -2 198 -2 270 0 73 1 11 3 -138 3 -148 0 -208 -2
-132 -3z"/>
<path d="M5023 3493 c15 -2 37 -2 50 0 12 2 0 4 -28 4 -27 0 -38 -2 -22 -4z"/>
<path d="M5100 3493 c0 -5 71 -7 157 -5 254 4 274 8 51 10 -115 1 -208 -1
-208 -5z"/>
<path d="M4533 3443 c76 -2 198 -2 270 0 73 1 11 3 -138 3 -148 0 -208 -2
-132 -3z"/>
<path d="M4723 3210 c0 -25 2 -35 4 -22 2 12 2 32 0 45 -2 12 -4 2 -4 -23z"/>
<path d="M5360 3234 c0 -8 5 -12 10 -9 6 4 8 11 5 16 -9 14 -15 11 -15 -7z"/>
<path d="M5282 3227 c-12 -7 -20 -16 -16 -20 9 -9 10 -70 1 -84 -13 -22 18
-34 51 -20 30 12 31 14 14 31 -13 14 -14 20 -4 23 10 4 10 8 0 20 -10 12 -9
17 4 27 15 11 15 13 -3 24 -22 14 -19 14 -47 -1z"/>
<path d="M5360 3190 c0 -5 5 -10 11 -10 5 0 7 5 4 10 -3 6 -8 10 -11 10 -2 0
-4 -4 -4 -10z"/>
<path d="M4745 3181 c3 -5 -2 -17 -11 -25 -8 -9 -12 -16 -7 -16 13 0 33 22 33
37 0 7 -5 13 -11 13 -5 0 -8 -4 -4 -9z"/>
<path d="M4800 3177 c-8 -7 -14 -22 -12 -34 2 -14 -2 -23 -10 -23 -7 0 -3 -7
9 -15 18 -12 26 -13 51 -2 25 10 27 14 16 25 -17 15 -18 32 -3 32 8 0 8 5 -1
15 -15 18 -30 19 -50 2z"/>
<path d="M5360 3139 c0 -5 5 -7 10 -4 6 3 10 8 10 11 0 2 -4 4 -10 4 -5 0 -10
-5 -10 -11z"/>
<path d="M4045 2931 c39 -3 127 -3 195 0 110 5 102 5 -70 5 -110 1 -164 -2
-125 -5z"/>
<path d="M4558 2933 c12 -2 30 -2 40 0 9 3 -1 5 -23 4 -22 0 -30 -2 -17 -4z"/>
<path d="M4735 2931 c28 -3 86 -3 130 0 68 5 61 6 -50 6 -78 0 -110 -2 -80 -6z"/>
<path d="M5110 2945 c0 -8 5 -15 10 -15 6 0 10 7 10 15 0 8 -4 15 -10 15 -5 0
-10 -7 -10 -15z"/>
<path d="M4700 2843 c-41 -2 -77 -8 -80 -13 -3 -6 -34 -13 -67 -16 -59 -6 -93
-18 -82 -28 4 -4 251 27 307 40 13 2 20 9 17 14 -3 6 -9 9 -13 8 -4 -1 -41 -4
-82 -5z"/>
<path d="M4498 2833 c23 -2 59 -2 80 0 20 2 1 4 -43 4 -44 0 -61 -2 -37 -4z"/>
<path d="M4863 2833 c9 -2 25 -2 35 0 9 3 1 5 -18 5 -19 0 -27 -2 -17 -5z"/>
</g>
</svg>
